<?xml version="1.0" encoding="UTF-8"?>
<svg id="katman_1" data-name="katman 1" xmlns="http://www.w3.org/2000/svg" viewBox="0 0 841.89 242.17">
  <defs>
    <style>
      .cls-1, .cls-2 {
        fill: none;
      }

      .cls-3 {
        fill: #ffed00;
        fill-rule: evenodd;
      }

      .cls-2 {
        stroke: #1d1d1b;
        stroke-miterlimit: 22.93;
        stroke-width: .57px;
      }
    </style>
  </defs>
  <rect class="cls-1" x="38.29" y="-9.43" width="770.73" height="501.45"/>
  <path class="cls-3" d="M166.95,106.61c.39.13.58.32.58.58-.39-.13-.58-.32-.58-.58M165.33,107.49c.08-.45.62-.84,1.62-1.16v.29c-.46,0-.75.15-.87.44-.12.29-.37.44-.75.44ZM165.1,105.84c-.46,0-.71-.1-.75-.29-.04-.19-.1-.39-.17-.58.23,0,.54-.06.93-.19v1.07ZM159.66,101.76c-.23,0-.35-.1-.35-.29,0-.06.08-.1.23-.1l.35.1c0,.19-.08.29-.23.29ZM130.49,134.18c.46,0,.77-.23.93-.68l-.23-.1c-.23,0-.35.06-.35.19l.12.29-.58-.39-.23.39c0,.19.12.29.35.29ZM160.36,149.7c.15-.13.29-.19.4-.19s.17-.06.17-.19c-.15.06-.29.1-.41.1s-.17.1-.17.29ZM170.43,126.9c.08,0,.12-.06.12-.19l-.35-.1-.12.1c.08,0,.14.03.17.1.04.06.1.1.17.1ZM170.31,117.87c.39-.26.58-.58.58-.97,0-.45-.27-.68-.81-.68s-.81.26-.81.78c0,.45.35.74,1.04.87ZM168.92,115.74l-.23-.19c0,.13.08.19.23.19ZM170.31,114.09l-.23-.1c0,.07.08.1.23.1ZM169.15,113.5c.62,0,.93-.23.93-.68l-.93-.19-.23.19c0,.13.04.24.12.34.08.1.12.21.12.34ZM161.86,108.65c.46,0,.69-.23.69-.68,0-.07.04-.1.12-.1h-.12c0,.13-.12.19-.35.19l-.46-.1v.58l.12.1ZM152.83,102.83v-.19l.46.19h-.46v.58c.31,0,.5-.08.58-.24.08-.16.19-.24.35-.24.08,0,.16.08.23.24.08.16.5.24,1.27.24v.19c.08,0,.12-.03.12-.1l-.12-.1v-.58c.31,0,.56.06.75.19.19.13.37.19.52.19.23,0,.35-.19.35-.58-.31,0-.46-.03-.46-.1l.23-.29c-.23-.07-.54-.1-.93-.1-.69,0-1.04.16-1.04.48-.39,0-.58-.06-.58-.19v-.78c0-.39-.27-.65-.81-.78.16-.13.23-.26.23-.39s-.19-.19-.58-.19c-.15,0-.5.1-1.04.29h-.46c0,.32.12.49.35.49.08-.06.12-.23.12-.49l.23.49.46-.49c.16.06.23.16.23.29l-.12.97.35.39-.23.39h-.23c0,.13.08.19.23.19ZM135.59,138.83c.23,0,.5-.13.81-.39-.54,0-1-.06-1.39-.19v.29c0,.19.19.29.58.29ZM139.18,137.86c0-.26-.23-.45-.69-.58,0,.26.23.45.69.58ZM132.23,137.48c.39,0,.69-.06.93-.19.23-.13.42-.19.58-.19.23,0,.46.07.69.19.08-.06.12-.19.12-.39,0-.13-.04-.19-.12-.19l-.69.19c-.39,0-.58-.13-.58-.39v-.39c0-.19-.27-.29-.81-.29.08.19.12.49.12.87,0,.32-.15.58-.46.78h.23ZM133.5,132.72c.08-.06.17-.1.29-.1s.17-.07.17-.19c-.31.13-.46.23-.46.29ZM135.01,130.58c.23,0,.39-.03.46-.1.08-.06.19-.1.35-.1h.35c0-.32-.06-.55-.17-.68-.12-.13-.17-.26-.17-.39-1.08,0-1.62.1-1.62.29.31,0,.44.16.41.49-.04.32.1.49.41.49ZM139.64,124.37c.15,0,.23-.06.23-.19-.46,0-.69.06-.69.19h.46ZM144.04,123.02l.81-.19v-.68c-.15-.19-.35-.29-.58-.29-.69,0-1.04.32-1.04.97.08.13.35.19.81.19ZM138.94,123.5c.77,0,1.31-.29,1.62-.87-.62-.71-1.16-1.1-1.62-1.16-.54.26-.81.52-.81.78s-.04.58-.12.97c.15.19.46.29.93.29ZM139.87,115.93c.46,0,.7-.06.7-.19-.46,0-.7.07-.7.19ZM150.29,109.33v-.1c0-.13.06-.24.17-.34.12-.1.25-.21.41-.34l-.35-.1c-.31,0-.46.19-.46.58l.23.29ZM150.06,108.36c.08-.06.12-.16.12-.29,0-.19-.12-.29-.35-.29,0,.19-.12.39-.35.58h.58ZM146.7,107.97c0-.19.15-.49.46-.87-.46.06-.69.26-.69.58l.23.29ZM147.74,105.16c.62-.26.93-.45.93-.58-.62,0-.93.19-.93.58ZM153.88,104.58c-.08-.13-.23-.19-.46-.19l.46.19ZM148.9,104.29v-.48l-.46-.19c0,.26-.19.39-.58.39.15.06.29.13.41.19.12.07.33.1.64.1ZM155.73,103.61c.39,0,.58-.07.58-.19-.39,0-.58.06-.58.19ZM151.44,103.41c0-.06.04-.1.12-.1-.08,0-.12.03-.12.1ZM151.68,104.29c0-.26-.04-.44-.12-.53-.08-.1-.12-.21-.12-.34l-.81-.1c-.39,0-.58.19-.58.58l.12.39h1.5ZM151.56,102.25c.31,0,.46-.1.46-.29s-.19-.42-.58-.68c0,.32-.19.49-.58.49.15.06.27.16.35.29.08.13.19.19.35.19ZM148.9,103.22l-.12.1M149.48,103.61l1.04-1.36c-.15-.13-.31-.19-.46-.19s-.27.07-.35.19c-.08.13-.19.19-.35.19-.08,0-.23-.06-.46-.19.39-.13.58-.29.58-.49-.08-.32-.35-.49-.81-.49,0,.45-.04.76-.12.92-.08.16-.15.34-.23.53,0,.06.1.11.29.15.19.03.29.15.29.34.23.26.42.39.58.39ZM160.94,100.99c.23,0,.35-.03.35-.1-.15,0-.25-.03-.29-.1-.04-.06-.14-.1-.29-.1,0,.19.08.29.23.29ZM152.6,99.82l.23-.1c-.15,0-.23-.03-.23-.1s-.12-.1-.35-.1l-.12.19.46.1ZM158.51,99.24l.12-.19c0-.19-.15-.29-.46-.29l-.58.29.93.19ZM156.42,98.46l.23-.19h-.35l.12.19ZM155.26,98.85l.12-.68c-.15-.19-.31-.29-.46-.29.08.13.12.31.12.53s.08.37.23.44ZM149.59,99.05c.62,0,.93-.26.93-.78l-.23-.39c0,.32-.17.49-.52.49s-.52.23-.52.68h.35ZM157.58,96.52l.58-.1.12-.1c-.46,0-.69.06-.69.19ZM150.4,96.81c1.08,0,1.62-.13,1.62-.39s-.19-.39-.58-.39c-.08.19-.33.29-.75.29s-.64.13-.64.39c.08.06.19.1.35.1ZM154.45,97.49l-.35-.68.46-.39c0-.06-.21-.16-.64-.29-.42-.13-.71-.23-.87-.29,0,.97.46,1.52,1.39,1.65ZM158.51,96.04l.12-.19c0-.19-.15-.29-.46-.29l-.58.29c.31.13.62.19.93.19ZM152.6,95.65c.16,0,.23-.03.23-.1l-.58-.1c0,.06-.04.1-.12.1.08.06.23.1.46.1ZM157.12,94.87c.31,0,.46-.06.46-.19-.31,0-.46.06-.46.19ZM154.92,95.55c.15-.13.23-.23.23-.29,0-.13-.15-.32-.46-.58,0,.52.08.81.23.87ZM152.6,94.19c.08-.06.19-.1.35-.1v.1l.12-.19c-.31,0-.46.06-.46.19ZM152.6,93.32c.31,0,.46-.06.46-.19-.31,0-.46.06-.46.19ZM157.58,90.31l.23-.29c0-.32-.08-.49-.23-.49s-.23.1-.23.29l.23.49ZM160.24,94.39l.12-.19h-.23l.12.19ZM155.96,99.92l.12-.19c.31.13.58.19.81.19l-.69-.78-.12.58c-.15,0-.23.03-.23.1l.12.1ZM155.26,99.72c.15,0,.23-.16.23-.48-.15,0-.23.16-.23.48ZM150.52,101.08c.31,0,.44-.1.41-.29-.04-.19.02-.29.17-.29l-.23-.1c-.31.19-.5.42-.58.68h.23ZM157.58,102.83c.23,0,.35-.03.35-.1l-.35-.1v.19ZM164.06,103.61c.46,0,.69-.1.69-.29-.23-.13-.42-.19-.58-.19l-.23.1-.46-.39c0,.26.04.42.12.49l.35-.1v.39h.12ZM161.51,101.96c0-.13-.08-.29-.23-.49,0,.19.08.36.23.49ZM157.81,103.8c.08,0,.12-.07.12-.19.15,0,.23-.07.23-.19-.15,0-.23.06-.23.19-.08,0-.12.06-.12.19ZM158.51,103.41c0-.13-.04-.19-.12-.19l-.12.19h.23ZM153.53,112.73c0-.13-.15-.19-.46-.19,0,.13.15.19.46.19ZM147.16,102.34l-.12-.1c0,.06.04.1.12.1ZM154.92,88.56l-.12-.49-.35.19.46.29ZM144.86,101.5c.03-.07.06-.13.1-.2.07-.29.16-.59.23-.85.23-.77.61-1.52,1.25-2,.85-2.84,2.93-6.24,4.32-8.44l1.39-2.33c.11-.75.44-1.45.98-2.05.02-.04.02-.13.02-.17,0-1.15,1.05-2.08,2.34-2.08,2.35,0,3.3,1.7,3.54,3.46,1.47,1.79,3.87,6.76,4.49,7.94.15.29.21.56.21.87,0,.08,0,.15-.01.23.1.1.19.21.27.31.29.37.43.76.43,1.21v1.55c0,.05,0,.1,0,.15,1.15.32,2.12.99,2.33,2.04.02.04.05.09.07.13.09.15.16.31.2.47.47.5.76,1.11.76,1.86,0,.25-.02.5-.06.75.19.06.38.15.56.26.34.21.6.48.77.79.48.44.77,1.01.81,1.67.68,1.01,1.34,2.23,1.91,3.22,1.66,2.85,3.28,5.72,4.92,8.62,4.5,8.37,9.01,16.76,13.38,25.18,1.2,2.31,2.4,4.63,3.54,6.96.5,1.02,1.24,2.41,1.53,3.48.18.64.03,1.26-.43,1.78-.46.52-1.1.8-1.84.8h-52.09c-1.29,0-2.34-.94-2.34-2.08,0-1.46,1.62-4.7,2.24-6,.76-1.72,1.57-3.63,2.54-5.26.42-.7,1.18-1.11,2.07-1.11h26.03c-.58-1.05-1.3-2.1-1.74-2.73-.22-.32-.34-.65-.35-1.02-.21-.2-.4-.42-.54-.66-.02-.04-.04-.07-.06-.1-2.37-4.55-4.8-9.09-7.27-13.6-1.99-3.62-3.87-7.29-5.64-11-.41.82-.85,1.64-1.26,2.43-1.47,2.85-2.97,5.7-4.47,8.54-5.53,10.48-11.11,20.94-16.7,31.4-.4.74-1.19,1.19-2.12,1.19h-12.5c-.82,0-1.53-.34-1.97-.96-.44-.62-.5-1.33-.16-2l3.33-6.45c1.76-3.66,3.56-7.36,5.55-10.92.55-.98,1.52-2.81,2.59-4.02v-.35c0-.81.51-1.51,1.27-1.86,0-.94.45-1.77,1.16-2.44.02-.19.08-.38.17-.57.18-.39.46-.7.82-.92.28-.45.6-1.34.73-1.73.03-.09.07-.17.11-.26,1.48-2.8,2.89-5.62,4.25-8.47,1.42-2.98,3.05-5.88,4.88-8.68.25-.38.6-.66,1.01-.84.29-.62.52-1.26.71-1.92.33-1.18.91-2.27,1.7-3.25Z"/>
  <path class="cls-3" d="M97.74,157.12l-18.59-65.52M79.15,91.6v.59h-.53v-.59h.53ZM82.71,92.54l.13.12c-.09,0-.15.04-.2.12-.04.08-.11.12-.2.12s-.13-.08-.13-.23l.4-.12ZM81.26,93.83l.66.12v.12c-.44,0-.66-.08-.66-.23ZM81,94.89l-.4.59c0-.23.04-.37.13-.41.09-.04.18-.1.26-.18ZM71.9,93.13c.26,0,.4.23.4.7-.35,0-.53-.16-.53-.47l.13-.23ZM74.54,92.3l.13.12h-.26c0-.08.04-.12.13-.12ZM77.04,96.06c.17,0,.26.08.26.23.35.16.53.39.53.7-.35,0-.53-.24-.53-.7-.18,0-.26-.08-.26-.23ZM75.73,97.23l-.66.23c0,.16.09.24.26.24.26,0,.4-.16.4-.47ZM81.26,97c0,.31.35.47,1.05.47-.18-.31-.53-.47-1.05-.47ZM110.21,89.72c0,.31-.18.59-.53.82,0-.47.18-.74.53-.82ZM122.47,92.66c.09.23.22.47.4.7.18.23.26.55.26.94-.26.16-.57.23-.92.23-1.05,0-1.58-.51-1.58-1.52.18,0,.37-.06.59-.18.22-.12.64-.18,1.25-.18ZM113.11,96.29c.09.08.22.12.4.12h.13v.12c-.35,0-.53-.08-.53-.23ZM100.85,145.33c.44.39.66.86.66,1.41l.26.23c-.18,0-.26-.08-.26-.23h-.66l-.13.47c-.09-.24-.22-.35-.39-.35l-.4.12c0-.31.17-.47.53-.47l.4.23c0-.23-.09-.45-.26-.65-.18-.2-.26-.37-.26-.53s.18-.23.53-.23ZM93.74,88.9c.35,0,.53.08.53.23h-.4c-.09,0-.13-.08-.13-.23ZM101.64,90.9l.13.12c-.09.08-.22.12-.4.12s-.26-.04-.26-.12l.53-.12ZM107.05,90.78v.82h-.79c0-.55.09-.82.26-.82,0,.16.09.23.26.23l.26-.23ZM96.64,91.84c.18,0,.26.2.26.59h-.79l-.26-.59h.79ZM92.81,94.89c.35,0,.53.08.53.23-.35,0-.53-.08-.53-.23ZM95.58,98.87c.18,0,.26.08.26.23-.35,0-.53.19-.53.59l-.13-.35c0-.31.13-.47.4-.47ZM92.29,99.46c.09,0,.26.08.53.23l-.53.12-.13-.12c0-.16.04-.23.13-.23ZM92.42,105.8c.44,0,.66.08.66.23-.44,0-.66-.08-.66-.23ZM102.17,110.25c.09.08.22.12.4.12h.13v.12c-.35,0-.53-.08-.53-.23ZM95.58,110.25c.09.08.22.12.4.12h.13v.12c-.35,0-.53-.08-.53-.23ZM91.23,111.55c.09.16.22.23.4.23h.13v.12c-.35,0-.53-.12-.53-.35ZM101.51,114.13l.13.59-.13.35-.26-.7c0-.16.09-.23.26-.23ZM100.33,115.77c.09.08.22.12.39.12h.13v.12c-.35,0-.53-.08-.53-.23ZM94.66,116.35c-.35.94-.79,1.41-1.32,1.41l.13-.23c0-.23-.11-.39-.33-.47-.22-.08-.33-.31-.33-.7h.26c.09,0,.18.08.26.23.09.16.22.27.4.35.18,0,.31-.1.4-.29.09-.2.26-.29.53-.29ZM102.96,119.76c0,.08.04.12.13.12-.09.16-.22.23-.4.23s-.26-.08-.26-.23l.53-.12ZM102.43,120.81c.09.16.2.27.33.35.13.08.24.2.33.35-.35,0-.55.08-.59.23-.04.16-.15.31-.33.47-.09-.16-.13-.43-.13-.82,0-.16.13-.35.4-.59ZM100.46,122.46l.66.47h-.79l-.4.23.53-.7ZM102.3,127.85l.13.12c-.09.08-.22.12-.4.12s-.26-.04-.26-.12l.53-.12ZM97.95,127.85l.53.12-.53.35h1.05c0,.39-.11.59-.33.59s-.46.08-.73.24c-.26-.47-.39-.86-.39-1.17.09-.08.22-.12.39-.12ZM94.26,129.38c.09.08.26.12.53.12h.13v.12c-.44,0-.66-.08-.66-.23ZM102.7,131.96l.13.23c0,.24-.18.35-.53.35l-.53-.35.4-.23h.53ZM100.33,129.96l.53.35c-.35,0-.53.12-.53.35,0,.16.11.35.33.59.22.24.33.51.33.82,0,.23-.48.55-1.45.94-.26-.47-.4-.86-.4-1.17,0-.47.26-.82.79-1.06-.35,0-.53-.04-.53-.12s.02-.14.07-.18c.04-.04.07-.14.07-.29s.26-.23.79-.23ZM99.93,134.19l.26.12c-.18,0-.26-.04-.26-.12ZM95.71,136.53l.4.12c-.18.16-.31.23-.4.23s-.13-.08-.13-.23c0-.08.04-.12.13-.12ZM98.48,136.06c.62.08,1.32.7,2.11,1.88-1.23-.16-2.11-.59-2.64-1.29.35-.23.53-.43.53-.59ZM94,136.65c0,.39-.04.65-.13.76-.09.12-.18.25-.26.41-.79,0-1.19-.27-1.19-.82.53,0,.86-.06.99-.18.13-.12.33-.18.59-.18ZM100.99,138.18c.18,0,.35.08.53.23l-.53.12-.13-.12.13-.23ZM94.92,138.65c.26.23.4.7.4,1.41-.88-.16-1.32-.55-1.32-1.17.18,0,.48-.08.92-.23ZM93.21,140.05c.18,0,.35.08.53.23-.09.08-.26.12-.53.12-.09,0-.13-.04-.13-.12l.13-.23ZM94.92,141.46c.44,0,.66.08.66.23-.44,0-.66-.08-.66-.23ZM100.59,143.22c.26,0,.46.08.59.23.13.16.33.31.59.47-.97,0-1.45-.23-1.45-.7h.26ZM97.69,143.57c.18.08.33.12.46.12s.24.08.33.23c-.26-.08-.46-.12-.59-.12s-.2-.08-.2-.23ZM99.01,145.57c.26,0,.4.12.4.35,0,.08-.18.12-.53.12l-.4-.23c.18-.16.35-.23.53-.23ZM100.19,147.33l.4.12c-.09.08-.22.12-.4.12s-.26-.04-.26-.12.09-.12.26-.12ZM102.04,148.15c.09,0,.22.08.4.23l-.4.12-.26-.12c0-.16.09-.23.26-.23ZM101.38,148.85c.18,0,.31.08.4.23-.62,0-.92-.08-.92-.23h.53ZM100.33,148.85v.94c-.44,0-.68-.02-.73-.06-.04-.04-.11-.06-.2-.06l-.4.12c0-.47.15-.7.46-.7s.59-.08.86-.23ZM99.93,150.14c.26,0,.4.04.4.12-.26,0-.42.04-.46.12-.04.08-.11.12-.2.12l-.13-.23.4-.12ZM102.04,153.43c.09,0,.22.08.4.23l-.4.12-.26-.12c0-.16.09-.23.26-.23ZM91.1,153.66c.09,0,.22.08.4.23l-.4.12-.13-.12c0-.16.04-.23.13-.23ZM99.54,150.85c.09.47.29.86.59,1.17.31.31.46.74.46,1.29-1.23.47-2.11.74-2.64.82l.13.12c0,.08-.13.12-.39.12,0-1.64.61-2.82,1.85-3.52ZM102.96,146.97l.13.47h-.66c0-.31.18-.47.53-.47ZM91.23,155.3c0,.47-.09.78-.26.94-.26-.23-.39-.43-.39-.59.09-.23.31-.35.66-.35,0-.78.26-1.17.79-1.17.09,0,.22.08.4.23l-.13.35.13.59-.53.35c-.18-.23-.4-.35-.66-.35ZM93.34,154.13c0,.16.11.31.33.47.22.16.33.35.33.59-.18,0-.26.04-.26.12-.18-.16-.37-.27-.59-.35-.22-.08-.33-.19-.33-.35.09-.31.26-.47.53-.47,0-.47.13-.74.4-.82,0,.16.07.29.2.41.13.12.24.25.33.41h-.92ZM96.5,151.9h-.66c0-.16-.04-.29-.13-.41-.09-.12-.13-.29-.13-.53,0-.16.04-.27.13-.35.53.47.79.86.79,1.17v.12ZM98.22,147.33l.26-.12v-.47h.79v.47c-.53,0-.88.04-1.06.12ZM99.27,141.7c.18-.16.35-.23.53-.23l.92.47c-.61.24-1.14.35-1.58.35l-.13-.12c.26,0,.4-.04.4-.12l-.13-.35h-1.58v.12c-.26,0-.39-.31-.39-.94,0-.39.13-.59.39-.59.09.16.31.27.66.35.7.08,1.05.27,1.05.59l-.13.47ZM101.12,135.01c0,.31.11.49.33.53.22.04.33.18.33.41-.18,0-.26.04-.26.12-.26-.31-.66-.47-1.19-.47,0-.63.13-.94.39-.94l.4.35c0-.31-.04-.49-.13-.53-.09-.04-.13-.14-.13-.29,0-.31.26-.47.79-.47s.79.16.79.47c-.26,0-.44.16-.53.47-.09.31-.22.47-.4.47l-.4-.12ZM94,119.17v.47h-.66c0-.31.22-.47.66-.47,0-.31.13-.47.39-.47.44.16.75.31.92.47-.09.08-.18.18-.26.29-.09.12-.22.18-.39.18,0-.31-.22-.47-.66-.47ZM92.81,118.35c.18,0,.26.08.26.23,0,.08-.09.12-.26.12s-.31.04-.39.12c0-.16.13-.31.39-.47l-1.32-.24c-.26,0-.62-.12-1.05-.35,0-.23.09-.43.26-.59.18-.16.29-.27.33-.35.04-.08.11-.19.2-.35.35,0,.53.18.53.53s.13.61.4.76c0-.31.13-.47.4-.47.35,0,.53.16.53.47l-.26.59ZM93.34,113.66c.18-.47.48-.7.92-.7v.7l-.26.23-.66-.23ZM93.34,113.77v.12c.62.23.92.7.92,1.41-.7,0-1.05-.35-1.05-1.06l.13-.47ZM90.97,146.39l-.79.35v.7c.18,0,.29-.12.33-.35.04-.23.2-.35.46-.35.18,0,.26.08.26.23l.26-.23c0-.23-.17-.35-.53-.35ZM103.23,104.62c.18-.08.26-.16.26-.23s-.09-.12-.26-.12v.35ZM71.52,87.42h51.75v16.17h-17.11v53.53h-17.54v-53.53h-17.11v-16.17Z"/>
  <path class="cls-3" d="M266.53,157.12l14.37-5.9M280.9,151.22c.26.08.53.16.79.23.26.08.53.2.79.35h-.53c-.62,0-.97-.2-1.06-.59-.35,0-.53-.04-.53-.12,0-.23.17-.35.53-.35l.13.24-.13.23ZM283.41,155.45c-.09-.08-.22-.12-.4-.12h-.13v-.12c.35,0,.53.08.53.23ZM272.47,153.45v-.59h.53v.59h-.53ZM268.91,152.51l-.13-.12c.09,0,.15-.04.2-.12.04-.08.11-.12.2-.12s.13.08.13.23l-.4.12ZM270.36,151.22l-.66-.12v-.12c.44,0,.66.08.66.23ZM287.76,152.4c-.09-.23-.22-.47-.4-.7-.18-.23-.26-.55-.26-.94.26-.16.57-.23.92-.23,1.05,0,1.58.51,1.58,1.53-.18,0-.37.06-.59.18-.22.12-.64.18-1.25.18ZM270.62,150.17l.4-.59c0,.23-.04.37-.13.41-.09.04-.18.1-.26.18ZM279.72,151.93c-.26,0-.4-.23-.4-.7.35,0,.53.16.53.47l-.13.23ZM277.08,152.75l-.13-.12h.26c0,.08-.04.12-.13.12ZM274.57,148.99c-.18,0-.26-.08-.26-.24-.35-.16-.53-.39-.53-.7.35,0,.53.23.53.7.18,0,.26.08.26.24ZM275.89,147.82l.66-.23c0-.16-.09-.24-.26-.24-.26,0-.4.16-.4.47ZM270.36,148.06c0-.31-.35-.47-1.05-.47.17.31.53.47,1.05.47ZM250.77,99.72c-.44-.39-.66-.86-.66-1.41l-.26-.23c.18,0,.26.08.26.23h.66l.13-.47c.09.23.22.35.39.35l.4-.12c0,.31-.17.47-.53.47l-.4-.23c0,.23.09.45.26.65.18.2.26.37.26.53s-.17.23-.53.23ZM257.88,156.15c-.35,0-.53-.08-.53-.23h.4c.09,0,.13.08.13.23ZM249.97,154.16l-.13-.12c.09-.08.22-.12.4-.12s.26.04.26.12l-.53.12ZM254.98,153.22c-.18,0-.26-.2-.26-.59h.79l.26.59h-.79ZM258.81,150.17c-.35,0-.53-.08-.53-.23.35,0,.53.08.53.23ZM256.04,146.18c-.17,0-.26-.08-.26-.23.35,0,.53-.2.53-.59l.13.35c0,.31-.13.47-.4.47ZM259.33,145.59c-.09,0-.26-.08-.53-.23l.53-.12.13.12c0,.16-.04.23-.13.23ZM259.2,139.26c-.44,0-.66-.08-.66-.23.44,0,.66.08.66.23ZM249.45,134.8c-.09-.08-.22-.12-.4-.12h-.13v-.12c.35,0,.53.08.53.23ZM256.04,134.8c-.09-.08-.22-.12-.4-.12h-.13v-.12c.35,0,.53.08.53.23ZM260.39,133.51c-.09-.16-.22-.23-.4-.23h-.13v-.12c.35,0,.53.12.53.35ZM250.11,130.93l-.13-.59.13-.35.26.7c0,.16-.09.24-.26.24ZM251.29,129.28c-.09-.08-.22-.12-.39-.12h-.13v-.12c.35,0,.53.08.53.23ZM256.96,128.7c.35-.94.79-1.41,1.32-1.41l-.13.23c0,.23.11.39.33.47.22.08.33.31.33.7h-.26c-.09,0-.18-.08-.26-.23-.09-.16-.22-.27-.4-.35-.18,0-.31.1-.39.29-.09.2-.26.29-.53.29ZM248.66,125.3c0-.08-.04-.12-.13-.12.09-.16.22-.23.4-.23s.26.08.26.23l-.53.12ZM249.18,124.24c-.09-.16-.2-.27-.33-.35-.13-.08-.24-.2-.33-.35.35,0,.55-.08.59-.23.04-.16.15-.31.33-.47.09.16.13.43.13.82,0,.16-.13.35-.4.59ZM251.16,122.6l-.66-.47h.79l.4-.23-.53.7ZM249.32,117.2l-.13-.12c.09-.08.22-.12.4-.12s.26.04.26.12l-.53.12ZM253.67,117.2l-.53-.12.53-.35h-1.05c0-.39.11-.59.33-.59s.46-.08.72-.24c.26.47.39.86.39,1.17-.09.08-.22.12-.39.12ZM257.36,115.68c-.09-.08-.26-.12-.53-.12h-.13v-.12c.44,0,.66.08.66.23ZM248.92,113.1l-.13-.23c0-.23.18-.35.53-.35l.53.35-.4.23h-.53ZM251.29,115.09l-.53-.35c.35,0,.53-.12.53-.35,0-.16-.11-.35-.33-.59-.22-.24-.33-.51-.33-.82,0-.23.48-.55,1.45-.94.26.47.4.86.4,1.17,0,.47-.26.82-.79,1.06.35,0,.53.04.53.12s-.02.14-.07.18c-.04.04-.07.14-.07.29s-.26.23-.79.23ZM251.69,110.87l-.26-.12c.18,0,.26.04.26.12ZM255.91,108.52l-.4-.12c.18-.16.31-.23.4-.23s.13.08.13.23c0,.08-.04.12-.13.12ZM253.14,108.99c-.62-.08-1.32-.7-2.11-1.88,1.23.16,2.11.59,2.64,1.29-.35.23-.53.43-.53.59ZM257.62,108.4c0-.39.04-.65.13-.76.09-.12.18-.25.26-.41.79,0,1.19.27,1.19.82-.53,0-.86.06-.99.18-.13.12-.33.18-.59.18ZM250.63,106.88c-.17,0-.35-.08-.53-.23l.53-.12.13.12-.13.23ZM256.7,106.41c-.26-.23-.39-.7-.39-1.41.88.16,1.32.55,1.32,1.17-.18,0-.48.08-.92.23ZM258.41,105c-.18,0-.35-.08-.53-.23.09-.08.26-.12.53-.12.09,0,.13.04.13.12l-.13.23ZM256.7,103.59c-.44,0-.66-.08-.66-.23.44,0,.66.08.66.23ZM251.03,101.83c-.26,0-.46-.08-.59-.23-.13-.16-.33-.31-.59-.47.97,0,1.45.23,1.45.7h-.26ZM253.93,101.48c-.18-.08-.33-.12-.46-.12s-.24-.08-.33-.23c.26.08.46.12.59.12s.2.08.2.23ZM252.61,99.49c-.26,0-.4-.12-.4-.35,0-.08.18-.12.53-.12l.4.24c-.18.16-.35.23-.53.23ZM251.42,97.73l-.4-.12c.09-.08.22-.12.4-.12s.26.04.26.12-.09.12-.26.12ZM249.58,96.9c-.09,0-.22-.08-.4-.23l.4-.12.26.12c0,.16-.09.23-.26.23ZM250.24,96.2c-.18,0-.31-.08-.4-.23.62,0,.92.08.92.23h-.53ZM251.29,96.2v-.94c.44,0,.68.02.73.06.04.04.11.06.2.06l.4-.12c0,.47-.15.7-.46.7s-.59.08-.86.23ZM251.69,94.91c-.26,0-.4-.04-.4-.12.27,0,.42-.04.46-.12.04-.08.11-.12.2-.12l.13.23-.4.12ZM249.58,91.63c-.09,0-.22-.08-.4-.23l.4-.12.26.12c0,.16-.09.23-.26.23ZM260.52,91.39c-.09,0-.22-.08-.4-.23l.4-.12.13.12c0,.16-.04.23-.13.23ZM252.08,94.21c-.09-.47-.29-.86-.59-1.17-.31-.31-.46-.74-.46-1.29,1.23-.47,2.11-.74,2.64-.82l-.13-.12c0-.08.13-.12.39-.12,0,1.64-.61,2.82-1.85,3.52ZM248.66,98.08l-.13-.47h.66c0,.31-.18.47-.53.47ZM260.39,89.75c0-.47.09-.78.26-.94.26.23.4.43.4.59-.09.24-.31.35-.66.35,0,.78-.26,1.17-.79,1.17-.09,0-.22-.08-.4-.23l.13-.35-.13-.59.53-.35c.18.24.4.35.66.35ZM258.28,90.92c0-.16-.11-.31-.33-.47-.22-.16-.33-.35-.33-.59.18,0,.26-.04.26-.12.18.16.37.27.59.35.22.08.33.19.33.35-.09.31-.26.47-.53.47,0,.47-.13.74-.4.82,0-.16-.07-.29-.2-.41-.13-.12-.24-.25-.33-.41h.92ZM255.12,93.15h.66c0,.16.04.29.13.41.09.12.13.29.13.53,0,.16-.04.27-.13.35-.53-.47-.79-.86-.79-1.17v-.12ZM253.4,97.73l-.26.12v.47h-.79v-.47c.53,0,.88-.04,1.06-.12ZM252.35,103.36c-.18.16-.35.23-.53.23l-.92-.47c.61-.24,1.14-.35,1.58-.35l.13.12c-.26,0-.4.04-.4.12l.13.35h1.58v-.12c.26,0,.39.31.39.94,0,.39-.13.59-.39.59-.09-.16-.31-.27-.66-.35-.7-.08-1.05-.27-1.05-.59l.13-.47ZM250.5,110.04c0-.31-.11-.49-.33-.53-.22-.04-.33-.18-.33-.41.18,0,.26-.04.26-.12.26.31.66.47,1.19.47,0,.63-.13.94-.39.94l-.4-.35c0,.31.04.49.13.53.09.04.13.14.13.29,0,.31-.26.47-.79.47s-.79-.16-.79-.47c.26,0,.44-.16.53-.47.09-.31.22-.47.4-.47l.4.12ZM257.62,125.88v-.47h.66c0,.31-.22.47-.66.47,0,.31-.13.47-.39.47-.44-.16-.75-.31-.92-.47.09-.08.18-.18.26-.29.09-.12.22-.18.39-.18,0,.31.22.47.66.47ZM258.81,126.7c-.18,0-.26-.08-.26-.23,0-.08.09-.12.26-.12s.31-.04.39-.12c0,.16-.13.31-.39.47l1.32.24c.26,0,.62.12,1.05.35,0,.23-.09.43-.26.59-.18.16-.29.27-.33.35-.04.08-.11.19-.2.35-.35,0-.53-.18-.53-.53s-.13-.61-.4-.76c0,.31-.13.47-.4.47-.35,0-.53-.16-.53-.47l.26-.59ZM258.28,131.4c-.18.47-.48.7-.92.7v-.7l.26-.23.66.23ZM258.28,131.28v-.12c-.62-.23-.92-.7-.92-1.41.7,0,1.05.35,1.05,1.06l-.13.47ZM260.65,98.66l.79-.35v-.7c-.18,0-.29.12-.33.35-.04.23-.2.35-.46.35-.18,0-.26-.08-.26-.23l-.26.23c0,.23.17.35.53.35ZM248.39,140.43c-.18.08-.26.16-.26.23s.09.12.26.12v-.35ZM245.48,87.42h17.54v53.53h27.46v16.17h-45v-69.7Z"/>
  <path class="cls-3" d="M373.72,140.95h9.61c.2.11.47.16.82.16l.1-.16h4.44c.38,0,.75-.02,1.11-.05h0c.39.16.83.27,1.33.33-.11-.16-.22-.32-.33-.46,1.89-.33,3.46-1.14,4.72-2.41,1.71-1.72,2.57-5.05,2.57-9.98v-13.74c0-4.2-.63-7.08-1.89-8.66-1.23-1.6-3.64-2.4-7.27-2.4h-15.23v16.12l-.33.07c0,.16.09.23.26.23.02,0,.04,0,.07,0v1.06c-.13-.08-.24-.2-.33-.35-.26.23-.4.43-.4.59,0,.39.04.66.13.82.18-.16.29-.31.33-.47.03-.1.11-.17.26-.2v10.52l-.07-.12h-.53l-.4.23.53.35c.23,0,.38-.05.46-.14v8.64ZM406.56,144.51c-.06-.24-.11-.48-.17-.73-.06-.24-.07-.5-.05-.79l.26.41c.31.47.29.84-.04,1.11.18.27.22.43.15.46-.23.12-.43.04-.61-.23l.16-.22.29-.02ZM409.42,140.47c-.03.11,0,.23.08.36l.07.1-.11.06c-.18-.27-.19-.45-.04-.52ZM401,127.73c-.3.16-.66.16-1.06,0,.46-.23.81-.24,1.06,0ZM404.28,138.64c-.18.18-.35.4-.49.66-.14.25-.4.48-.78.67-.28-.12-.51-.32-.69-.59-.53-.81-.3-1.47.69-1.98.09.14.24.26.47.37.22.11.49.4.8.88ZM407.84,145.08c.13.2-.03.42-.49.66-.18-.27-.11-.49.19-.64l.29-.02ZM409.96,146.7l-.05.16-.13-.2c.08-.04.14-.03.18.04ZM407.56,150.5c.09.14.05.24-.1.32.02.35-.12.6-.42.76-.18-.27-.04-.52.42-.76-.09-.14-.06-.24.1-.32ZM405.76,150.08l-.56-.39c-.15.08-.18.19-.1.32.13.2.35.23.65.07ZM391.4,148.63c.44.39.66.86.66,1.41l.26.23c-.18,0-.26-.08-.26-.23h-.66l-.13.47c-.09-.23-.22-.35-.39-.35l-.4.12c0-.31.18-.47.53-.47l.4.23c0-.23-.09-.45-.26-.65-.18-.2-.26-.37-.26-.53s.17-.23.53-.23ZM391.54,141.47c.17,0,.35.08.53.23l-.53.12-.13-.12.13-.23ZM385.47,141.94c.26.23.4.7.4,1.41-.88-.16-1.32-.55-1.32-1.17.18,0,.48-.08.92-.23ZM383.76,143.35c.18,0,.35.08.53.23-.09.08-.26.12-.53.12-.09,0-.13-.04-.13-.12l.13-.23ZM385.47,144.76c.44,0,.66.08.66.23-.44,0-.66-.08-.66-.23ZM391.14,146.52c.26,0,.46.08.59.23.13.16.33.31.59.47-.97,0-1.45-.23-1.45-.7h.26ZM388.24,146.87c.18.08.33.12.46.12s.24.08.33.23c-.26-.08-.46-.12-.59-.12s-.2-.08-.2-.23ZM389.56,148.86c.26,0,.4.12.4.35,0,.08-.18.12-.53.12l-.4-.23c.18-.16.35-.23.53-.23ZM390.74,150.62l.4.12c-.09.08-.22.12-.4.12s-.26-.04-.26-.12.09-.12.26-.12ZM392.59,151.44c.09,0,.22.08.4.23l-.4.12-.26-.12c0-.16.09-.23.26-.23ZM391.93,152.15c.18,0,.31.08.4.23-.62,0-.92-.08-.92-.23h.53ZM390.88,152.15v.94c-.44,0-.68-.02-.73-.06-.04-.04-.11-.06-.2-.06l-.4.12c0-.47.15-.7.46-.7s.59-.08.86-.23ZM390.48,153.44c.26,0,.4.04.4.12-.26,0-.42.04-.46.12-.04.08-.11.12-.2.12l-.13-.23.4-.12ZM392.59,156.72c.09,0,.22.08.4.23l-.4.12-.26-.12c0-.16.09-.23.26-.23ZM393.51,150.27l.13.47h-.66c0-.31.18-.47.53-.47ZM387.05,155.2h-.66c0-.16-.04-.29-.13-.41-.09-.12-.13-.29-.13-.53,0-.16.04-.27.13-.35.53.47.79.86.79,1.17v.12ZM388.77,150.62l.26-.12v-.47h.79v.47c-.53,0-.88.04-1.06.12ZM389.82,144.99c.18-.16.35-.23.53-.23l.92.47c-.61.24-1.14.35-1.58.35l-.13-.12c.26,0,.4-.04.4-.12l-.13-.35h-1.58v.12c-.26,0-.4-.31-.4-.94,0-.39.13-.59.4-.59.09.16.31.27.66.35.7.08,1.05.27,1.05.59l-.13.47ZM381.52,149.68l-.79.35v.7c.18,0,.29-.12.33-.35.04-.23.2-.35.46-.35.18,0,.26.08.26.23l.26-.23c0-.23-.18-.35-.53-.35ZM400.88,108.79c-.26-.08-.53-.16-.79-.24-.26-.08-.53-.2-.79-.35h.53c.61,0,.97.2,1.05.59.35,0,.53.04.53.12,0,.23-.17.35-.53.35l-.13-.24.13-.23ZM398.38,104.57c.09.08.22.12.4.12h.13v.12c-.35,0-.53-.08-.53-.23ZM409.32,106.56v.59h-.53v-.59h.53ZM412.88,107.5l.13.12c-.09,0-.15.04-.2.12-.04.08-.11.12-.2.12s-.13-.08-.13-.23l.4-.12ZM411.43,108.79l.66.12v.12c-.44,0-.66-.08-.66-.23ZM411.16,109.84l-.4.59c0-.23.04-.37.13-.41.09-.04.17-.1.26-.18ZM402.07,108.08c.26,0,.4.23.4.7-.35,0-.53-.16-.53-.47l.13-.23ZM404.7,107.26l.13.12h-.26c0-.08.04-.12.13-.12ZM407.21,111.02c.18,0,.26.08.26.24.35.16.53.39.53.7-.35,0-.53-.23-.53-.7-.18,0-.26-.08-.26-.24ZM405.89,112.19l-.66.23c0,.16.09.24.26.24.26,0,.4-.16.4-.47ZM411.43,111.96c0,.31.35.47,1.05.47-.17-.31-.53-.47-1.05-.47ZM400.28,93.74c-.26-.08-.53-.16-.79-.23-.26-.08-.53-.2-.79-.35h.53c.62,0,.97.2,1.05.59.35,0,.53.04.53.12,0,.23-.18.35-.53.35l-.13-.24.13-.23ZM397.78,89.52c.09.08.22.12.4.12h.13v.12c-.35,0-.53-.08-.53-.23ZM381.17,89.64c0,.31-.18.59-.53.82,0-.47.18-.74.53-.82ZM393.43,92.57c.09.23.22.47.4.7.17.23.26.55.26.94-.26.16-.57.23-.92.23-1.05,0-1.58-.51-1.58-1.52.18,0,.37-.06.59-.18.22-.12.64-.18,1.25-.18ZM410.57,94.8l-.4.59c0-.23.04-.37.13-.41.09-.04.18-.1.26-.18ZM384.07,96.21c.09.08.22.12.4.12h.13v.12c-.35,0-.53-.08-.53-.23ZM401.47,93.04c.26,0,.4.23.4.7-.35,0-.53-.16-.53-.47l.13-.23ZM404.11,92.22l.13.12h-.26c0-.08.04-.12.13-.12ZM406.61,95.97c.18,0,.26.08.26.24.35.16.53.39.53.7-.35,0-.53-.23-.53-.7-.18,0-.26-.08-.26-.24ZM405.29,97.15l-.66.23c0,.16.09.24.26.24.26,0,.4-.16.4-.47ZM410.83,96.91c0,.31.35.47,1.05.47-.18-.31-.53-.47-1.05-.47ZM371.81,145.25c.44.39.66.86.66,1.41l.26.23c-.18,0-.26-.08-.26-.23h-.66l-.13.47c-.09-.23-.22-.35-.39-.35l-.4.12c0-.31.18-.47.53-.47l.4.23c0-.23-.09-.45-.26-.65-.18-.2-.26-.37-.26-.53s.17-.23.53-.23ZM364.7,88.82c.35,0,.53.08.53.23h-.4c-.09,0-.13-.08-.13-.23ZM372.6,90.81l.13.12c-.09.08-.22.12-.4.12s-.26-.04-.26-.12l.53-.12ZM378.01,90.69v.82h-.79c0-.55.09-.82.26-.82,0,.16.09.23.26.23l.26-.23ZM367.59,91.75c.18,0,.26.2.26.59h-.79l-.26-.59h.79ZM363.77,94.8c.35,0,.53.08.53.23-.35,0-.53-.08-.53-.23ZM366.54,98.79c.17,0,.26.08.26.23-.35,0-.53.2-.53.59l-.13-.35c0-.31.13-.47.4-.47ZM363.25,99.38c.09,0,.26.08.53.23l-.53.12-.13-.12c0-.16.04-.23.13-.23ZM363.38,105.71c.44,0,.66.08.66.23-.44,0-.66-.08-.66-.23ZM373.13,110.17c.09.08.22.12.4.12h.13v.12c-.35,0-.53-.08-.53-.23ZM366.54,110.17c.09.08.22.12.39.12h.13v.12c-.35,0-.53-.08-.53-.23ZM362.19,111.46c.09.16.22.23.4.23h.13v.12c-.35,0-.53-.12-.53-.35ZM372.47,114.04l.13.59-.13.35-.26-.7c0-.16.09-.23.26-.23ZM371.29,115.68c.09.08.22.12.39.12h.13v.12c-.35,0-.53-.08-.53-.23ZM365.62,116.27c-.35.94-.79,1.41-1.32,1.41l.13-.23c0-.23-.11-.39-.33-.47-.22-.08-.33-.31-.33-.7h.26c.09,0,.18.08.26.23.09.16.22.27.4.35.18,0,.31-.1.4-.29.09-.2.26-.29.53-.29ZM371.42,122.37l.66.47h-.79l-.4.23.53-.7ZM373.26,127.77l.13.12c-.09.08-.22.12-.4.12s-.26-.04-.26-.12l.53-.12ZM368.91,127.77l.53.12-.53.35h1.05c0,.39-.11.59-.33.59s-.46.08-.72.24c-.26-.47-.4-.86-.4-1.17.09-.08.22-.12.4-.12ZM365.22,129.29c.09.08.26.12.53.12h.13v.12c-.44,0-.66-.08-.66-.23ZM371.29,129.88l.53.35c-.35,0-.53.12-.53.35,0,.16.11.35.33.59.22.24.33.51.33.82,0,.23-.48.55-1.45.94-.26-.47-.4-.86-.4-1.17,0-.47.26-.82.79-1.06-.35,0-.53-.04-.53-.12s.02-.14.07-.18c.04-.04.07-.14.07-.29s.26-.23.79-.23ZM370.89,134.1l.26.12c-.18,0-.26-.04-.26-.12ZM366.67,136.45l.4.12c-.18.16-.31.23-.4.23s-.13-.08-.13-.23c0-.08.04-.12.13-.12ZM369.44,135.98c.62.08,1.32.7,2.11,1.88-1.23-.16-2.11-.59-2.64-1.29.35-.23.53-.43.53-.59ZM364.96,136.57c0,.39-.04.65-.13.76-.09.12-.18.25-.26.41-.79,0-1.19-.27-1.19-.82.53,0,.86-.06.99-.18.13-.12.33-.18.59-.18ZM371.95,138.09c.17,0,.35.08.53.23l-.53.12-.13-.12.13-.23ZM365.88,138.56c.26.23.4.7.4,1.41-.88-.16-1.32-.55-1.32-1.17.18,0,.48-.08.92-.23ZM364.17,139.97c.18,0,.35.08.53.23-.09.08-.26.12-.53.12-.09,0-.13-.04-.13-.12l.13-.23ZM365.88,141.38c.44,0,.66.08.66.23-.44,0-.66-.08-.66-.23ZM371.55,143.14c.26,0,.46.08.59.23.13.16.33.31.59.47-.97,0-1.45-.23-1.45-.7h.26ZM368.65,143.49c.18.08.33.12.46.12s.24.08.33.23c-.26-.08-.46-.12-.59-.12s-.2-.08-.2-.23ZM369.97,145.48c.26,0,.4.12.4.35,0,.08-.18.12-.53.12l-.4-.24c.18-.16.35-.23.53-.23ZM371.15,147.24l.4.12c-.09.08-.22.12-.4.12s-.26-.04-.26-.12.09-.12.26-.12ZM373,148.06c.09,0,.22.08.4.23l-.4.12-.26-.12c0-.16.09-.23.26-.23ZM372.34,148.77c.18,0,.31.08.4.23-.62,0-.92-.08-.92-.23h.53ZM371.29,148.77v.94c-.44,0-.68-.02-.73-.06-.04-.04-.11-.06-.2-.06l-.4.12c0-.47.15-.7.46-.7s.59-.08.86-.23ZM370.89,150.06c.26,0,.4.04.4.12-.26,0-.42.04-.46.12-.04.08-.11.12-.2.12l-.13-.23.4-.12ZM373,153.34c.09,0,.22.08.4.23l-.4.12-.26-.12c0-.16.09-.23.26-.23ZM362.06,153.58c.09,0,.22.08.4.23l-.4.12-.13-.12c0-.16.04-.23.13-.23ZM370.49,150.76c.09.47.29.86.59,1.17.31.31.46.74.46,1.29-1.23.47-2.11.74-2.64.82l.13.12c0,.08-.13.12-.39.12,0-1.64.61-2.82,1.85-3.52ZM373.92,146.89l.13.47h-.66c0-.31.18-.47.53-.47ZM362.19,155.22c0,.47-.09.78-.26.94-.26-.23-.39-.43-.39-.59.09-.23.31-.35.66-.35,0-.78.26-1.17.79-1.17.09,0,.22.08.4.23l-.13.35.13.59-.53.35c-.18-.23-.4-.35-.66-.35ZM364.3,154.05c0,.16.11.31.33.47.22.16.33.35.33.59-.18,0-.26.04-.26.12-.18-.16-.37-.27-.59-.35-.22-.08-.33-.19-.33-.35.09-.31.26-.47.53-.47,0-.47.13-.74.4-.82,0,.16.07.29.2.41.13.12.24.25.33.41h-.92ZM367.46,151.82h-.66c0-.16-.04-.29-.13-.41-.09-.12-.13-.29-.13-.53,0-.16.04-.27.13-.35.53.47.79.86.79,1.17v.12ZM369.18,147.24l.26-.12v-.47h.79v.47c-.53,0-.88.04-1.06.12ZM370.23,141.61c.18-.16.35-.23.53-.23l.92.47c-.61.24-1.14.35-1.58.35l-.13-.12c.26,0,.4-.04.4-.12l-.13-.35h-1.58v.12c-.26,0-.4-.31-.4-.94,0-.39.13-.59.4-.59.09.16.31.27.66.35.7.08,1.05.27,1.05.59l-.13.47ZM372.08,134.92c0,.31.11.49.33.53.22.04.33.18.33.41-.18,0-.26.04-.26.12-.26-.31-.66-.47-1.19-.47,0-.63.13-.94.39-.94l.4.35c0-.31-.04-.49-.13-.53-.09-.04-.13-.14-.13-.29,0-.31.26-.47.79-.47s.79.16.79.47c-.26,0-.44.16-.53.47-.09.31-.22.47-.4.47l-.4-.12ZM364.96,119.08v.47h-.66c0-.31.22-.47.66-.47,0-.31.13-.47.39-.47.44.16.75.31.92.47-.09.08-.18.18-.26.29-.09.12-.22.18-.4.18,0-.31-.22-.47-.66-.47ZM363.77,118.26c.18,0,.26.08.26.23,0,.08-.09.12-.26.12s-.31.04-.39.12c0-.16.13-.31.39-.47l-1.32-.24c-.26,0-.61-.12-1.05-.35,0-.23.09-.43.26-.59.18-.16.29-.27.33-.35.04-.08.11-.19.2-.35.35,0,.53.18.53.53s.13.61.4.76c0-.31.13-.47.4-.47.35,0,.53.16.53.47l-.26.59ZM364.3,113.57c.18-.47.48-.7.92-.7v.7l-.26.23-.66-.23ZM364.3,113.69v.12c.62.23.92.7.92,1.41-.7,0-1.05-.35-1.05-1.06l.13-.47ZM361.93,146.3l-.79.35v.7c.18,0,.29-.12.33-.35.04-.23.2-.35.46-.35.18,0,.26.08.26.23l.26-.23c0-.23-.18-.35-.53-.35ZM356.18,157.12v-69.7h34.24c8.7,0,15.16,2.04,19.39,6.13,4.25,4.07,6.37,10.75,6.37,20v16.2c0,9.74-1.93,16.74-5.77,21.02-3.86,4.23-10.06,6.35-18.63,6.35h-2.1c.41-.13.9-.31,1.46-.52,0-.55-.15-.98-.46-1.29-.31-.31-.5-.7-.59-1.17-1.09.62-1.7,1.62-1.82,2.98h-3.67s-.07-.07-.11-.11c-.13-.12-.2-.25-.2-.41-.2.06-.33.23-.37.52h-1.95c-.14-.11-.24-.17-.32-.17s-.12.06-.13.17h-25.34Z"/>
  <path class="cls-3" d="M453.53,81.57l4.47-12.45M458.01,69.12h9.56v9.57h-9.56v-9.57ZM439.5,69.12h9.56v9.57h-9.56v-9.57ZM457.48,156.38l-3.95-74.81,3.95,74.81ZM453.53,81.57l12.38-5.8-12.38,5.8ZM465.91,75.77c0,.31.35.47,1.06.47-.18-.31-.53-.47-1.06-.47ZM460.38,76l-.66.23c0,.16.09.24.26.24.26,0,.4-.16.4-.47ZM461.7,74.83c.18,0,.26.08.26.23.35.16.53.39.53.7-.35,0-.53-.23-.53-.7-.18,0-.26-.08-.26-.23ZM463.49,71.54l.13.12h-.26c0-.08.05-.12.13-.12ZM460.86,72.36c.26,0,.4.23.4.7-.35,0-.53-.16-.53-.47l.13-.23ZM465.65,73.65l-.39.59c0-.23.04-.37.13-.41.09-.04.18-.1.26-.18ZM459.67,73.06c-.26-.08-.53-.16-.79-.23-.26-.08-.53-.2-.79-.35h.53c.62,0,.97.2,1.05.59.35,0,.53.04.53.12,0,.23-.18.35-.53.35l-.13-.23.13-.23ZM448,76.26c0,.31.35.47,1.05.47-.18-.31-.53-.47-1.05-.47ZM442.46,76.5l-.66.23c0,.16.09.24.26.24.26,0,.39-.16.39-.47ZM443.78,75.32c.18,0,.26.08.26.24.35.16.53.39.53.7-.35,0-.53-.23-.53-.7-.18,0-.26-.08-.26-.24ZM445.58,72.03l.13.12h-.26c0-.08.04-.12.13-.12ZM442.94,72.85c.26,0,.4.23.4.7-.35,0-.53-.16-.53-.47l.13-.23ZM447.74,74.15l-.4.59c0-.23.04-.37.13-.41.09-.04.18-.1.26-.18ZM441.75,73.56c-.26-.08-.53-.16-.79-.23-.26-.08-.53-.2-.79-.35h.53c.62,0,.97.2,1.05.59.35,0,.53.04.53.12,0,.23-.18.35-.53.35l-.13-.24.13-.23ZM469.64,143.77c-.06-.24-.11-.48-.17-.73-.06-.24-.07-.5-.05-.79l.26.41c.31.47.29.84-.04,1.11.18.27.23.43.15.46-.23.12-.43.04-.61-.23l.16-.22.29-.02ZM472.49,139.73c-.03.11,0,.23.08.36l.07.1-.11.06c-.18-.27-.19-.45-.04-.52ZM476.02,149.16l-.57.29-.26-.41.57-.29.26.41ZM467.35,137.9c-.19.18-.35.4-.49.66-.14.25-.4.48-.78.67-.28-.13-.51-.32-.69-.59-.53-.81-.3-1.47.69-1.98.09.14.24.26.47.37.22.11.49.4.8.88ZM473.75,152.22h-.77c.23-.13.38-.16.46-.11.08.05.18.09.3.11ZM470.92,144.33c.13.2-.03.42-.49.66-.18-.27-.11-.48.19-.64l.29-.02ZM473.03,145.95l-.05.16-.13-.2c.08-.04.14-.03.18.04ZM470.63,149.76c.09.13.05.24-.1.32.02.35-.12.6-.42.76-.18-.27-.04-.52.42-.76-.09-.14-.06-.24.1-.32ZM468.83,149.33l-.56-.39c-.15.08-.18.19-.1.32.13.2.35.23.65.07ZM454.48,147.88c.44.39.66.86.66,1.41l.26.24c-.18,0-.26-.08-.26-.24h-.66l-.13.47c-.09-.23-.22-.35-.39-.35l-.4.12c0-.31.17-.47.53-.47l.4.23c0-.23-.09-.45-.26-.65-.18-.2-.26-.37-.26-.53s.18-.23.53-.23ZM448.55,141.2c.26.23.4.7.4,1.41-.88-.16-1.32-.55-1.32-1.17.18,0,.48-.08.92-.23ZM446.83,142.61c.18,0,.35.08.53.23-.09.08-.26.12-.53.12-.09,0-.13-.04-.13-.12l.13-.23ZM448.55,144.01c.44,0,.66.08.66.23-.44,0-.66-.08-.66-.23ZM454.21,145.77c.26,0,.46.08.59.23.13.16.33.31.59.47-.97,0-1.45-.23-1.45-.7h.26ZM451.31,146.12c.18.08.33.12.46.12s.24.08.33.23c-.26-.08-.46-.12-.59-.12s-.2-.08-.2-.23ZM452.63,148.12c.26,0,.4.12.4.35,0,.08-.18.12-.53.12l-.4-.23c.18-.16.35-.23.53-.23ZM453.82,149.88l.4.12c-.09.08-.22.12-.4.12s-.26-.04-.26-.12.09-.12.26-.12ZM455.66,150.7c.09,0,.22.08.4.23l-.4.12-.26-.12c0-.16.09-.23.26-.23ZM455,151.4c.18,0,.31.08.4.23-.62,0-.92-.08-.92-.23h.53ZM453.95,151.4v.94c-.44,0-.68-.02-.73-.06-.04-.04-.11-.06-.2-.06l-.4.12c0-.47.15-.7.46-.7s.59-.08.86-.23ZM453.55,152.69c.26,0,.4.04.4.12-.26,0-.42.04-.46.12-.04.08-.11.12-.2.12l-.13-.23.4-.12ZM455.66,155.98c.09,0,.22.08.4.23l-.4.12-.26-.12c0-.16.09-.23.26-.23ZM444.72,156.21c.09,0,.22.08.4.23l-.4.12-.13-.12c0-.16.04-.23.13-.23ZM453.16,153.4c.09.47.29.86.59,1.17.31.31.46.74.46,1.29-1.23.47-2.11.74-2.64.82l.13.12c0,.08-.13.12-.39.12,0-1.64.61-2.82,1.85-3.52ZM456.59,149.53l.13.47h-.66c0-.31.18-.47.53-.47ZM450.13,154.45h-.66c0-.16-.04-.29-.13-.41-.09-.12-.13-.29-.13-.53,0-.16.04-.27.13-.35.53.47.79.86.79,1.17v.12ZM451.84,149.88l.26-.12v-.47h.79v.47c-.53,0-.88.04-1.05.12ZM452.89,144.25c.18-.16.35-.23.53-.23l.92.47c-.61.24-1.14.35-1.58.35l-.13-.12c.26,0,.4-.04.4-.12l-.13-.35h-1.58v.12c-.26,0-.4-.31-.4-.94,0-.39.13-.59.4-.59.09.16.31.27.66.35.7.08,1.05.27,1.05.59l-.13.47ZM444.59,148.94l-.79.35v.7c.18,0,.28-.12.33-.35.04-.23.2-.35.46-.35.18,0,.26.08.26.24l.26-.24c0-.23-.17-.35-.53-.35ZM472.39,105.82v.59h-.53v-.59h.53ZM475.95,106.75l.13.12c-.09,0-.15.04-.2.12-.04.08-.11.12-.2.12s-.13-.08-.13-.23l.4-.12ZM474.5,108.05l.66.12v.12c-.44,0-.66-.08-.66-.23ZM474.24,109.1l-.4.59c0-.23.04-.37.13-.41.09-.04.18-.1.26-.18ZM465.14,107.34c.26,0,.4.23.4.7-.35,0-.53-.16-.53-.47l.13-.23ZM467.78,106.52l.13.12h-.26c0-.08.04-.12.13-.12ZM470.28,110.27c.17,0,.26.08.26.24.35.16.53.39.53.7-.35,0-.53-.23-.53-.7-.18,0-.26-.08-.26-.24ZM468.96,111.45l-.66.23c0,.16.09.24.26.24.26,0,.4-.16.4-.47ZM474.5,111.21c0,.31.35.47,1.05.47-.18-.31-.53-.47-1.05-.47ZM471.79,90.77v.59h-.53v-.59h.53ZM475.35,91.71l.13.12c-.09,0-.15.04-.2.12-.04.08-.11.12-.2.12s-.13-.08-.13-.23l.4-.12ZM473.9,93l.66.12v.12c-.44,0-.66-.08-.66-.23ZM473.64,94.06l-.4.59c0-.23.04-.37.13-.41.09-.04.18-.1.26-.18ZM464.54,92.3c.26,0,.4.23.4.7-.35,0-.53-.16-.53-.47l.13-.23ZM467.18,91.48l.13.12h-.26c0-.08.04-.12.13-.12ZM469.68,95.23c.18,0,.26.08.26.24.35.16.53.39.53.7-.35,0-.53-.23-.53-.7-.18,0-.26-.08-.26-.24ZM468.37,96.4l-.66.23c0,.16.09.23.26.23.26,0,.39-.16.39-.47ZM473.9,96.17c0,.31.35.47,1.05.47-.18-.31-.53-.47-1.05-.47ZM434.89,144.5c.44.39.66.86.66,1.41l.26.23c-.18,0-.26-.08-.26-.23h-.66l-.13.47c-.09-.23-.22-.35-.39-.35l-.39.12c0-.31.17-.47.53-.47l.4.23c0-.23-.09-.45-.26-.65-.18-.2-.26-.37-.26-.53s.18-.23.53-.23ZM427.77,88.07c.35,0,.53.08.53.23h-.4c-.09,0-.13-.08-.13-.23ZM435.68,90.07l.13.12c-.09.08-.22.12-.4.12s-.26-.04-.26-.12l.53-.12ZM441.08,89.95v.82h-.79c0-.55.09-.82.26-.82,0,.16.09.23.26.23l.26-.23ZM430.67,91.01c.18,0,.26.2.26.59h-.79l-.26-.59h.79ZM426.85,94.06c.35,0,.53.08.53.23-.35,0-.53-.08-.53-.23ZM429.61,98.05c.18,0,.26.08.26.23-.35,0-.53.2-.53.59l-.13-.35c0-.31.13-.47.4-.47ZM426.32,98.63c.09,0,.26.08.53.23l-.53.12-.13-.12c0-.16.04-.23.13-.23ZM426.45,104.97c.44,0,.66.08.66.23-.44,0-.66-.08-.66-.23ZM436.2,109.43c.09.08.22.12.4.12h.13v.12c-.35,0-.53-.08-.53-.23ZM429.61,109.43c.09.08.22.12.4.12h.13v.12c-.35,0-.53-.08-.53-.23ZM425.26,110.72c.09.16.22.23.39.23h.13v.12c-.35,0-.53-.12-.53-.35ZM435.55,113.3l.13.59-.13.35-.26-.7c0-.16.09-.23.26-.23ZM434.36,114.94c.09.08.22.12.39.12h.13v.12c-.35,0-.53-.08-.53-.23ZM428.69,115.53c-.35.94-.79,1.41-1.32,1.41l.13-.23c0-.23-.11-.39-.33-.47-.22-.08-.33-.31-.33-.7h.26c.09,0,.18.08.26.23.09.16.22.27.4.35.18,0,.31-.1.4-.29.09-.2.26-.29.53-.29ZM437,118.93c0,.08.04.12.13.12-.09.16-.22.23-.4.23s-.26-.08-.26-.23l.53-.12ZM436.47,119.98c.09.16.2.27.33.35.13.08.24.2.33.35-.35,0-.55.08-.59.23-.04.16-.15.31-.33.47-.09-.16-.13-.43-.13-.82,0-.16.13-.35.4-.59ZM434.49,121.63l.66.47h-.79l-.39.23.53-.7ZM436.34,127.02l.13.12c-.09.08-.22.12-.4.12s-.26-.04-.26-.12l.53-.12ZM431.99,127.02l.53.12-.53.35h1.05c0,.39-.11.59-.33.59s-.46.08-.72.24c-.26-.47-.4-.86-.4-1.17.09-.08.22-.12.4-.12ZM428.3,128.55c.09.08.26.12.53.12h.13v.12c-.44,0-.66-.08-.66-.23ZM436.73,131.13l.13.23c0,.23-.18.35-.53.35l-.53-.35.4-.23h.53ZM434.36,129.14l.53.35c-.35,0-.53.12-.53.35,0,.16.11.35.33.59.22.24.33.51.33.82,0,.23-.48.55-1.45.94-.26-.47-.4-.86-.4-1.17,0-.47.26-.82.79-1.06-.35,0-.53-.04-.53-.12s.02-.14.07-.18c.04-.04.07-.14.07-.29s.26-.23.79-.23ZM433.96,133.36l.26.12c-.18,0-.26-.04-.26-.12ZM429.75,135.7l.4.12c-.18.16-.31.23-.4.23s-.13-.08-.13-.23c0-.08.04-.12.13-.12ZM432.51,135.24c.62.08,1.32.7,2.11,1.88-1.23-.16-2.11-.59-2.64-1.29.35-.23.53-.43.53-.59ZM428.03,135.82c0,.39-.04.65-.13.76-.09.12-.18.25-.26.41-.79,0-1.19-.27-1.19-.82.53,0,.86-.06.99-.18.13-.12.33-.18.59-.18ZM435.02,137.35c.18,0,.35.08.53.23l-.53.12-.13-.12.13-.23ZM428.95,137.82c.26.23.4.7.4,1.41-.88-.16-1.32-.55-1.32-1.17.18,0,.48-.08.92-.23ZM427.24,139.22c.18,0,.35.08.53.23-.09.08-.26.12-.53.12-.09,0-.13-.04-.13-.12l.13-.23ZM428.95,140.63c.44,0,.66.08.66.23-.44,0-.66-.08-.66-.23ZM434.62,142.39c.26,0,.46.08.59.23.13.16.33.31.59.47-.97,0-1.45-.23-1.45-.7h.26ZM431.72,142.74c.18.08.33.12.46.12s.24.08.33.23c-.26-.08-.46-.12-.59-.12s-.2-.08-.2-.23ZM433.04,144.74c.26,0,.4.12.4.35,0,.08-.18.12-.53.12l-.4-.24c.18-.16.35-.23.53-.23ZM434.23,146.5l.4.12c-.09.08-.22.12-.4.12s-.26-.04-.26-.12.09-.12.26-.12ZM436.07,147.32c.09,0,.22.08.4.23l-.4.12-.26-.12c0-.16.09-.23.26-.23ZM435.41,148.02c.18,0,.31.08.4.23-.62,0-.92-.08-.92-.23h.53ZM434.36,148.02v.94c-.44,0-.68-.02-.73-.06-.04-.04-.11-.06-.2-.06l-.4.12c0-.47.15-.7.46-.7s.59-.08.86-.23ZM433.96,149.31c.26,0,.39.04.39.12-.26,0-.42.04-.46.12-.04.08-.11.12-.2.12l-.13-.23.4-.12ZM436.07,152.6c.09,0,.22.08.4.23l-.4.12-.26-.12c0-.16.09-.23.26-.23ZM437,146.15l.13.47h-.66c0-.31.18-.47.53-.47ZM430.54,151.07h-.66c0-.16-.04-.29-.13-.41-.09-.12-.13-.29-.13-.53,0-.16.04-.27.13-.35.53.47.79.86.79,1.17v.12ZM432.25,146.5l.26-.12v-.47h.79v.47c-.53,0-.88.04-1.05.12ZM433.3,140.87c.18-.16.35-.23.53-.23l.92.47c-.61.24-1.14.35-1.58.35l-.13-.12c.26,0,.4-.04.4-.12l-.13-.35h-1.58v.12c-.26,0-.39-.31-.39-.94,0-.39.13-.59.39-.59.09.16.31.27.66.35.7.08,1.05.27,1.05.59l-.13.47ZM435.15,134.18c0,.31.11.49.33.53.22.04.33.18.33.41-.18,0-.26.04-.26.12-.26-.31-.66-.47-1.19-.47,0-.63.13-.94.39-.94l.4.35c0-.31-.04-.49-.13-.53-.09-.04-.13-.14-.13-.29,0-.31.26-.47.79-.47s.79.16.79.47c-.26,0-.44.16-.53.47-.09.31-.22.47-.4.47l-.4-.12ZM428.03,118.34v.47h-.66c0-.31.22-.47.66-.47,0-.31.13-.47.39-.47.44.16.75.31.92.47-.09.08-.18.18-.26.29-.09.12-.22.18-.4.18,0-.31-.22-.47-.66-.47ZM427.37,112.83c.18-.47.48-.7.92-.7v.7l-.26.23-.66-.23ZM427.37,112.94v.12c.62.23.92.7.92,1.41-.7,0-1.06-.35-1.06-1.06l.13-.47ZM437.26,103.79c.18-.08.26-.16.26-.23s-.09-.12-.26-.12v.35ZM474.54,124.76c-.26-.08-.53-.16-.79-.23-.26-.08-.53-.2-.79-.35h.53c.61,0,.97.2,1.05.59.35,0,.53.04.53.12,0,.23-.18.35-.53.35l-.13-.24.13-.23ZM472.03,120.54c.09.08.22.12.4.12h.13v.12c-.35,0-.53-.08-.53-.23ZM467.68,123.59c.09.23.22.47.4.7.17.24.26.55.26.94-.26.16-.57.23-.92.23-1.05,0-1.58-.51-1.58-1.53.18,0,.37-.06.59-.18.22-.12.64-.18,1.25-.18ZM475.73,124.06c.26,0,.4.23.4.7-.35,0-.53-.16-.53-.47l.13-.23ZM478.36,123.24l.13.12h-.26c0-.08.04-.12.13-.12ZM479.55,128.16l-.66.23c0,.16.09.24.26.24.26,0,.39-.16.39-.47ZM425.02,86.68h17.54v45.55c0,3.83.72,6.23,2.13,7.22.43.3,1.01.56,1.73.77.13.07.3.11.5.13,1.62.4,3.86.59,6.72.59.28,0,.56,0,.84,0v.02s.12.12.12.12l.53-.12-.04-.03c3.47-.12,5.8-.68,6.94-1.7,1.34-1.16,2.02-3.41,2.02-6.77v-5.47h.02s-.02-.02-.02-.02v-18.46c.28-.02.42-.14.42-.35,0-.07-.14-.11-.42-.12v-21.37h17.54v40.97c-.08-.18-.23-.32-.47-.43-.18,0-.26-.08-.26-.24.18,0,.26.08.26.24,0,.44.16.68.47.7v5c0,9.2-2.03,15.54-6.08,19.02-.15.13-.3.25-.45.37l-.16-.42c-.14.07-.12.24.04.52-.92.71-1.98,1.33-3.17,1.88l.27-.13c.02-.21-.05-.44-.21-.69-.26.13-.28.41-.06.82-4.1,1.88-9.81,2.82-17.12,2.82-2.75,0-5.29-.08-7.62-.25h0c-.04-.06-.06-.13-.06-.19,0-.47.13-.74.4-.82,0,.16.07.29.2.41.13.12.24.25.33.41h-.92c-.16,0-.28.05-.37.16h0s-.71-.06-.71-.06c-.1-.07-.18-.11-.24-.11-.12,0-.22.02-.31.06l.49.04c-6.07-.52-10.64-1.63-13.72-3.33,0,0,0-.02,0-.03l-.13-.12c.53-.08,1.41-.35,2.64-.82,0-.55-.15-.98-.46-1.29-.31-.31-.51-.7-.59-1.17-1.15.66-1.77,1.73-1.84,3.21l-.24-.15c-4.31-2.73-6.46-9.17-6.46-19.33v-16.57c.19.07.36.1.5.1l1.32.23c.18,0,.26.08.26.23,0,.08-.09.12-.26.12s-.31.04-.39.12c0-.16.13-.31.39-.47l.26-.59c0-.31-.18-.47-.53-.47-.26,0-.4.16-.4.47-.26-.16-.4-.41-.4-.76s-.18-.53-.53-.53c-.09.16-.15.27-.2.35-.01.02-.02.04-.04.06v-29.38Z"/>
  <path class="cls-3" d="M525.29,157.12l23.97-15.78M549.26,141.35c-.06-.24-.11-.48-.17-.73-.06-.24-.07-.5-.05-.79l.26.41c.31.47.29.84-.04,1.11.18.27.22.43.15.46-.23.12-.43.04-.61-.23l.16-.22.29-.02ZM552.11,137.3c-.03.11,0,.23.08.36l.07.1-.11.06c-.17-.27-.19-.45-.04-.52ZM543.7,124.56c-.3.16-.66.16-1.06,0,.46-.23.81-.24,1.06,0ZM555.64,146.73l-.57.29-.26-.41.57-.29.26.41ZM556.51,149.95l-.05.16c-.04-.07-.11-.1-.21-.09-.1,0-.17-.03-.21-.09-.04-.07,0-.14.16-.22l.31.25ZM554.53,149.47l.22.57-.11.06c-.22-.34-.25-.55-.1-.63ZM546.97,135.48c-.19.18-.35.4-.49.66-.14.25-.4.48-.78.67-.28-.12-.51-.32-.69-.59-.53-.81-.3-1.47.69-1.98.09.14.24.26.47.37.22.11.49.4.8.88ZM553.37,149.8h-.77c.23-.13.38-.16.46-.11.08.05.18.09.3.11ZM550.54,141.91c.13.2-.03.42-.49.66-.18-.27-.11-.48.19-.64l.29-.02ZM552.65,143.53l-.05.16-.13-.2c.08-.04.13-.02.18.04ZM550.25,147.34c.09.14.05.24-.1.32.02.35-.12.6-.42.76-.18-.27-.04-.52.42-.76-.09-.14-.06-.24.1-.32ZM548.45,146.91l-.56-.39c-.15.08-.18.19-.1.32.13.2.35.23.65.07ZM551.45,151.06c-.3.16-.28.51.07,1.05.22-.29.19-.64-.07-1.05ZM526.93,145.46c.44.39.66.86.66,1.41l.26.23c-.18,0-.26-.08-.26-.23h-.66l-.13.47c-.09-.23-.22-.35-.39-.35l-.4.12c0-.31.18-.47.53-.47l.4.23c0-.23-.09-.45-.26-.65-.18-.19-.26-.37-.26-.53s.17-.23.53-.23ZM528.25,110.38c.09.08.22.12.4.12h.13v.12c-.35,0-.53-.08-.53-.23ZM521.66,110.38c.09.08.22.12.4.12h.13v.12c-.35,0-.53-.08-.53-.23ZM517.31,111.67c.09.16.22.23.4.23h.13v.12c-.35,0-.53-.12-.53-.35ZM527.59,114.25l.13.59-.13.35-.26-.7c0-.16.09-.23.26-.23ZM526.41,115.89c.09.08.22.12.39.12h.13v.12c-.35,0-.53-.08-.53-.24ZM520.74,116.48c-.35.94-.79,1.41-1.32,1.41l.13-.23c0-.23-.11-.39-.33-.47-.22-.08-.33-.31-.33-.7h.26c.09,0,.18.08.26.23.09.16.22.27.4.35.18,0,.31-.1.4-.29.09-.2.26-.29.53-.29ZM529.04,119.88c0,.08.04.12.13.12-.09.16-.22.23-.4.23s-.26-.08-.26-.23l.53-.12ZM528.51,120.94c.09.16.2.27.33.35.13.08.24.2.33.35-.35,0-.55.08-.59.23-.04.16-.15.31-.33.47-.09-.16-.13-.43-.13-.82,0-.16.13-.35.4-.59ZM526.54,122.58l.66.47h-.79l-.4.23.53-.7ZM528.38,127.98l.13.12c-.09.08-.22.12-.4.12s-.26-.04-.26-.12l.53-.12ZM524.03,127.98l.53.12-.53.35h1.05c0,.39-.11.59-.33.59s-.46.08-.72.24c-.26-.47-.4-.86-.4-1.17.09-.08.22-.12.4-.12ZM520.34,129.5c.09.08.26.12.53.12h.13v.12c-.44,0-.66-.08-.66-.23ZM528.78,132.08l.13.23c0,.23-.18.35-.53.35l-.53-.35.4-.23h.53ZM526.41,130.09l.53.35c-.35,0-.53.12-.53.35,0,.16.11.35.33.59.22.24.33.51.33.82,0,.23-.48.55-1.45.94-.26-.47-.4-.86-.4-1.17,0-.47.26-.82.79-1.06-.35,0-.53-.04-.53-.12s.02-.14.07-.18c.04-.04.07-.14.07-.29s.26-.23.79-.23ZM526.01,134.31l.26.12c-.18,0-.26-.04-.26-.12ZM524.56,136.19c.62.08,1.32.7,2.11,1.88-1.23-.16-2.11-.59-2.64-1.29.35-.23.53-.43.53-.59ZM527.06,138.3c.18,0,.35.08.53.23l-.53.12-.13-.12.13-.23ZM526.67,143.35c.26,0,.46.08.59.23.13.16.33.31.59.47-.97,0-1.45-.23-1.45-.7h.26ZM526.27,147.45l.4.12c-.09.08-.22.12-.4.12s-.26-.04-.26-.12.09-.12.26-.12ZM528.12,148.27c.09,0,.22.08.4.23l-.4.12-.26-.12c0-.16.09-.23.26-.23ZM527.46,148.98c.18,0,.31.08.4.23-.62,0-.92-.08-.92-.23h.53ZM528.12,153.55c.09,0,.22.08.4.23l-.4.12-.26-.12c0-.16.09-.23.26-.23ZM529.04,147.1l.13.47h-.66c0-.31.18-.47.53-.47ZM527.2,135.14c0,.31.11.49.33.53.22.04.33.18.33.41-.18,0-.26.04-.26.12-.26-.31-.66-.47-1.19-.47,0-.63.13-.94.39-.94l.4.35c0-.31-.04-.49-.13-.53-.09-.04-.13-.14-.13-.29,0-.31.26-.47.79-.47s.79.16.79.47c-.26,0-.44.16-.53.47-.09.31-.22.47-.4.47l-.39-.12ZM520.08,119.3v.47h-.66c0-.31.22-.47.66-.47,0-.31.13-.47.4-.47.44.16.75.31.92.47-.09.08-.18.18-.26.29-.09.12-.22.18-.39.18,0-.31-.22-.47-.66-.47ZM518.89,118.48c.18,0,.26.08.26.23,0,.08-.09.12-.26.12s-.31.04-.39.12c0-.16.13-.31.39-.47l-1.32-.24c-.26,0-.62-.12-1.05-.35,0-.23.09-.43.26-.59.18-.16.29-.27.33-.35.04-.08.11-.19.2-.35.35,0,.53.18.53.53s.13.61.4.76c0-.31.13-.47.4-.47.35,0,.53.16.53.47l-.26.59ZM519.42,113.78c.18-.47.48-.7.92-.7v.7l-.26.23-.66-.23ZM519.42,113.9v.12c.62.23.92.7.92,1.41-.7,0-1.05-.35-1.05-1.06l.13-.47ZM546.38,110.5c-.26-.08-.53-.16-.79-.23-.26-.08-.53-.2-.79-.35h.53c.61,0,.97.2,1.05.59.35,0,.53.04.53.12,0,.23-.18.35-.53.35l-.13-.23.13-.23ZM543.87,106.28c.09.08.22.12.4.12h.13v.12c-.35,0-.53-.08-.53-.23ZM527.26,106.4c0,.31-.18.59-.53.82,0-.47.18-.74.53-.82ZM554.81,108.27v.59h-.53v-.59h.53ZM558.37,109.21l.13.12c-.09,0-.15.04-.2.12-.04.08-.11.12-.2.12s-.13-.08-.13-.23l.4-.12ZM556.92,110.5l.66.12v.12c-.44,0-.66-.08-.66-.23ZM556.66,111.56l-.4.59c0-.23.04-.37.13-.41.09-.04.17-.1.26-.18ZM530.16,112.97c.09.08.22.12.4.12h.13v.12c-.35,0-.53-.08-.53-.23ZM547.56,109.8c.26,0,.4.23.4.7-.35,0-.53-.16-.53-.47l.13-.23ZM550.2,108.98l.13.12h-.26c0-.08.04-.12.13-.12ZM552.7,112.73c.17,0,.26.08.26.24.35.16.53.39.53.7-.35,0-.53-.23-.53-.7-.18,0-.26-.08-.26-.24ZM551.39,113.9l-.66.23c0,.16.09.23.26.23.26,0,.39-.16.39-.47ZM556.92,113.67c0,.31.35.47,1.05.47-.18-.31-.53-.47-1.05-.47ZM544.25,88.35v.59h-.53v-.59h.53ZM547.81,89.28l.13.12c-.09,0-.15.04-.2.12-.04.08-.11.12-.2.12s-.13-.08-.13-.23l.4-.12ZM546.36,90.58l.66.12v.12c-.44,0-.66-.08-.66-.23ZM546.09,91.63l-.4.59c0-.23.04-.37.13-.41.09-.04.18-.1.26-.18ZM519.6,93.04c.09.08.22.12.4.12h.13v.12c-.35,0-.53-.08-.53-.23ZM542.14,92.8c.18,0,.26.08.26.23.35.16.53.39.53.7-.35,0-.53-.23-.53-.7-.18,0-.26-.08-.26-.23ZM546.36,93.74c0,.31.35.47,1.05.47-.18-.31-.53-.47-1.05-.47ZM507.34,142.08c.44.39.66.86.66,1.41l.26.23c-.18,0-.26-.08-.26-.23h-.66l-.13.47c-.09-.23-.22-.35-.39-.35l-.4.12c0-.31.18-.47.53-.47l.4.23c0-.23-.09-.45-.26-.65-.18-.19-.26-.37-.26-.53s.17-.23.53-.23ZM508.13,87.64l.13.12c-.09.08-.22.12-.4.12s-.26-.04-.26-.12l.53-.12ZM513.54,87.53v.82h-.79c0-.55.09-.82.26-.82,0,.16.09.23.26.23l.26-.23ZM503.12,88.58c.18,0,.26.2.26.59h-.79l-.26-.59h.79ZM499.3,91.63c.35,0,.53.08.53.23-.35,0-.53-.08-.53-.23ZM502.07,95.62c.17,0,.26.08.26.23-.35,0-.53.2-.53.59l-.13-.35c0-.31.13-.47.4-.47ZM498.77,96.21c.09,0,.26.08.53.23l-.53.12-.13-.12c0-.16.04-.23.13-.23ZM498.91,102.54c.44,0,.66.08.66.23-.44,0-.66-.08-.66-.23ZM508.66,107c.09.08.22.12.4.12h.13v.12c-.35,0-.53-.08-.53-.23ZM502.07,107c.09.08.22.12.4.12h.13v.12c-.35,0-.53-.08-.53-.23ZM497.72,108.29c.09.16.22.23.4.23h.13v.12c-.35,0-.53-.12-.53-.35ZM508,110.87l.13.59-.13.35-.26-.7c0-.16.09-.23.26-.23ZM506.82,112.51c.09.08.22.12.39.12h.13v.12c-.35,0-.53-.08-.53-.23ZM501.15,113.1c-.35.94-.79,1.41-1.32,1.41l.13-.23c0-.23-.11-.39-.33-.47-.22-.08-.33-.31-.33-.7h.26c.09,0,.18.08.26.23.09.16.22.27.4.35.18,0,.31-.1.4-.29.09-.2.26-.29.53-.29ZM509.45,116.5c0,.08.04.12.13.12-.09.16-.22.23-.4.23s-.26-.08-.26-.23l.53-.12ZM508.92,117.56c.09.16.2.27.33.35.13.08.24.2.33.35-.35,0-.55.08-.59.24-.04.16-.15.31-.33.47-.09-.16-.13-.43-.13-.82,0-.16.13-.35.4-.59ZM506.95,119.2l.66.47h-.79l-.4.23.53-.7ZM508.79,124.6l.13.12c-.09.08-.22.12-.4.12s-.26-.04-.26-.12l.53-.12ZM504.44,124.6l.53.12-.53.35h1.05c0,.39-.11.59-.33.59s-.46.08-.72.24c-.26-.47-.4-.86-.4-1.17.09-.08.22-.12.4-.12ZM500.75,126.12c.09.08.26.12.53.12h.13v.12c-.44,0-.66-.08-.66-.23ZM509.19,128.7l.13.23c0,.24-.18.35-.53.35l-.53-.35.4-.23h.53ZM506.82,126.71l.53.35c-.35,0-.53.12-.53.35,0,.16.11.35.33.59.22.24.33.51.33.82,0,.23-.48.55-1.45.94-.26-.47-.4-.86-.4-1.17,0-.47.26-.82.79-1.06-.35,0-.53-.04-.53-.12s.02-.14.07-.18c.04-.04.07-.14.07-.29s.26-.23.79-.23ZM506.42,130.93l.26.12c-.18,0-.26-.04-.26-.12ZM502.2,133.28l.4.12c-.18.16-.31.23-.4.23s-.13-.08-.13-.23c0-.08.04-.12.13-.12ZM504.97,132.81c.61.08,1.32.7,2.11,1.88-1.23-.16-2.11-.59-2.64-1.29.35-.23.53-.43.53-.59ZM500.49,133.4c0,.39-.04.65-.13.76-.09.12-.18.25-.26.41-.79,0-1.19-.27-1.19-.82.53,0,.86-.06.99-.18.13-.12.33-.18.59-.18ZM507.47,134.92c.18,0,.35.08.53.23l-.53.12-.13-.12.13-.23ZM501.41,135.39c.26.23.4.7.4,1.41-.88-.16-1.32-.55-1.32-1.17.18,0,.48-.08.92-.23ZM499.7,136.8c.18,0,.35.08.53.23-.09.08-.26.12-.53.12-.09,0-.13-.04-.13-.12l.13-.23ZM501.41,138.21c.44,0,.66.08.66.23-.44,0-.66-.08-.66-.23ZM507.08,139.97c.26,0,.46.08.59.24.13.16.33.31.59.47-.97,0-1.45-.23-1.45-.7h.26ZM504.18,140.32c.18.08.33.12.46.12s.24.08.33.23c-.26-.08-.46-.12-.59-.12s-.2-.08-.2-.23ZM505.5,142.31c.26,0,.4.12.4.35,0,.08-.18.12-.53.12l-.4-.23c.18-.16.35-.23.53-.23ZM506.68,144.07l.4.12c-.09.08-.22.12-.4.12s-.26-.04-.26-.12.09-.12.26-.12ZM508.53,144.89c.09,0,.22.08.4.23l-.4.12-.26-.12c0-.16.09-.23.26-.23ZM507.87,145.6c.18,0,.31.08.4.23-.62,0-.92-.08-.92-.23h.53ZM506.82,145.6v.94c-.44,0-.68-.02-.73-.06-.04-.04-.11-.06-.2-.06l-.4.12c0-.47.15-.7.46-.7s.59-.08.86-.23ZM506.42,146.89c.26,0,.4.04.4.12-.27,0-.42.04-.46.12-.04.08-.11.12-.2.12l-.13-.23.4-.12ZM508.53,150.17c.09,0,.22.08.4.23l-.4.12-.26-.12c0-.16.09-.23.26-.23ZM497.59,150.41c.09,0,.22.08.4.23l-.4.12-.13-.12c0-.16.04-.23.13-.23ZM506.02,147.59c.09.47.28.86.59,1.17.31.31.46.74.46,1.29-1.23.47-2.11.74-2.64.82l.13.12c0,.08-.13.12-.39.12,0-1.64.62-2.82,1.85-3.52ZM509.45,143.72l.13.47h-.66c0-.31.18-.47.53-.47ZM497.72,152.05c0,.47-.09.78-.26.94-.26-.23-.39-.43-.39-.59.09-.23.31-.35.66-.35,0-.78.26-1.17.79-1.17.09,0,.22.08.4.23l-.13.35.13.59-.53.35c-.18-.23-.4-.35-.66-.35ZM499.83,150.88c0,.16.11.31.33.47.22.16.33.35.33.59-.18,0-.26.04-.26.12-.18-.16-.37-.27-.59-.35-.22-.08-.33-.19-.33-.35.09-.31.26-.47.53-.47,0-.47.13-.74.4-.82,0,.16.07.29.2.41.13.12.24.25.33.41h-.92ZM502.99,148.65h-.66c0-.16-.04-.29-.13-.41-.09-.12-.13-.29-.13-.53,0-.16.04-.27.13-.35.53.47.79.86.79,1.17v.12ZM504.71,144.07l.26-.12v-.47h.79v.47c-.53,0-.88.04-1.05.12ZM505.76,138.44c.18-.16.35-.23.53-.23l.92.47c-.61.24-1.14.35-1.58.35l-.13-.12c.26,0,.4-.04.4-.12l-.13-.35h-1.58v.12c-.26,0-.39-.31-.39-.94,0-.39.13-.59.39-.59.09.16.31.27.66.35.7.08,1.05.27,1.05.59l-.13.47ZM507.61,131.75c0,.31.11.49.33.53.22.04.33.18.33.41-.18,0-.26.04-.26.12-.26-.31-.66-.47-1.19-.47,0-.63.13-.94.39-.94l.4.35c0-.31-.04-.49-.13-.53-.09-.04-.13-.14-.13-.29,0-.31.26-.47.79-.47s.79.16.79.47c-.26,0-.44.16-.53.47-.09.31-.22.47-.39.47l-.4-.12ZM500.49,115.92v.47h-.66c0-.31.22-.47.66-.47,0-.31.13-.47.4-.47.44.16.75.31.92.47-.09.08-.18.18-.26.29-.09.12-.22.18-.39.18,0-.31-.22-.47-.66-.47ZM499.3,115.1c.18,0,.26.08.26.23,0,.08-.09.12-.26.12s-.31.04-.39.12c0-.16.13-.31.39-.47l-1.32-.24c-.26,0-.61-.12-1.05-.35,0-.23.09-.43.26-.59.18-.16.29-.27.33-.35.04-.08.11-.19.2-.35.35,0,.53.18.53.53s.13.61.4.76c0-.31.13-.47.4-.47.35,0,.53.16.53.47l-.26.59ZM499.83,110.4c.18-.47.48-.7.92-.7v.7l-.26.23-.66-.23ZM499.83,110.52v.12c.62.23.92.7.92,1.41-.7,0-1.05-.35-1.05-1.06l.13-.47ZM497.46,143.13l-.79.35v.7c.18,0,.29-.12.33-.35.04-.23.2-.35.46-.35.18,0,.26.08.26.23l.26-.23c0-.23-.18-.35-.53-.35ZM509.71,101.37c.18-.08.26-.16.26-.23s-.09-.12-.26-.12v.35ZM492.65,87.42h29.56l19.12,52.82v-52.82h17.54v69.7h-29.83l-2.65-7.35h0v-.79c-.08.05-.16.09-.24.12l-1.06-2.94c.25,0,.38-.05.38-.11,0-.23-.13-.35-.4-.35-.05,0-.1,0-.15.02l-.63-1.76v.03c.08.02.16.04.25.07-.08-.15-.18-.22-.3-.23l-.72-2c.06.08.14.12.23.12v-.12h1.58c.18-.16.35-.23.53-.23l.92.47c-.61.24-1.14.35-1.58.35l-.13-.12c.26,0,.4-.04.4-.12l-.13-.35.13-.47c0-.31-.35-.51-1.05-.59-.35-.08-.57-.2-.66-.35-.26,0-.39.2-.39.59,0,.18.01.33.03.46l-1.6-4.45c.09,0,.22-.08.38-.23l-.4-.12s-.08.01-.1.03l-11.49-31.85v52.28h-17.54v-69.7Z"/>
  <path class="cls-3" d="M596.19,145.46c.44.39.66.86.66,1.41l.26.23c-.18,0-.26-.08-.26-.23h-.66l-.13.47c-.09-.23-.22-.35-.39-.35l-.4.12c0-.31.17-.47.53-.47l.4.23c0-.23-.09-.45-.26-.65-.18-.19-.26-.37-.26-.53s.18-.23.53-.23M597.51,110.38c.09.08.22.12.4.12h.13v.12c-.35,0-.53-.08-.53-.23ZM590.92,110.38c.09.08.22.12.39.12h.13v.12c-.35,0-.53-.08-.53-.23ZM586.57,111.67c.09.16.22.23.4.23h.13v.12c-.35,0-.53-.12-.53-.35ZM596.85,114.25l.13.59-.13.35-.26-.7c0-.16.09-.23.26-.23ZM595.66,115.89c.09.08.22.12.39.12h.13v.12c-.35,0-.53-.08-.53-.24ZM590,116.48c-.35.94-.79,1.41-1.32,1.41l.13-.23c0-.23-.11-.39-.33-.47-.22-.08-.33-.31-.33-.7h.26c.09,0,.18.08.26.23.09.16.22.27.4.35.18,0,.31-.1.4-.29.09-.2.26-.29.53-.29ZM598.3,119.88c0,.08.04.12.13.12-.09.16-.22.23-.4.23s-.26-.08-.26-.23l.53-.12ZM597.77,120.94c.09.16.2.27.33.35.13.08.24.2.33.35-.35,0-.55.08-.59.23-.04.16-.15.31-.33.47-.09-.16-.13-.43-.13-.82,0-.16.13-.35.4-.59ZM595.8,122.58l.66.47h-.79l-.4.23.53-.7ZM597.64,127.98l.13.12c-.09.08-.22.12-.4.12s-.26-.04-.26-.12l.53-.12ZM593.29,127.98l.53.12-.53.35h1.05c0,.39-.11.59-.33.59s-.46.08-.72.24c-.26-.47-.4-.86-.4-1.17.09-.08.22-.12.4-.12ZM589.6,129.5c.09.08.26.12.53.12h.13v.12c-.44,0-.66-.08-.66-.23ZM598.04,132.08l.13.23c0,.23-.18.35-.53.35l-.53-.35.4-.23h.53ZM595.66,130.09l.53.35c-.35,0-.53.12-.53.35,0,.16.11.35.33.59.22.24.33.51.33.82,0,.23-.48.55-1.45.94-.26-.47-.4-.86-.4-1.17,0-.47.26-.82.79-1.06-.35,0-.53-.04-.53-.12s.02-.14.07-.18c.04-.04.07-.14.07-.29s.26-.23.79-.23ZM595.27,134.31l.26.12c-.18,0-.26-.04-.26-.12ZM591.05,136.66l.39.12c-.18.16-.31.23-.39.23s-.13-.08-.13-.23c0-.08.04-.12.13-.12ZM593.82,136.19c.62.08,1.32.7,2.11,1.88-1.23-.16-2.11-.59-2.64-1.29.35-.23.53-.43.53-.59ZM589.34,136.78c0,.39-.04.65-.13.76-.09.12-.18.25-.26.41-.79,0-1.19-.27-1.19-.82.53,0,.86-.06.99-.18.13-.12.33-.18.59-.18ZM596.32,138.3c.18,0,.35.08.53.23l-.53.12-.13-.12.13-.23ZM590.26,138.77c.26.23.4.7.4,1.41-.88-.16-1.32-.55-1.32-1.17.18,0,.48-.08.92-.23ZM588.55,140.18c.18,0,.35.08.53.23-.09.08-.26.12-.53.12-.09,0-.13-.04-.13-.12l.13-.23ZM590.26,141.59c.44,0,.66.08.66.23-.44,0-.66-.08-.66-.23ZM595.93,143.35c.26,0,.46.08.59.23.13.16.33.31.59.47-.97,0-1.45-.23-1.45-.7h.26ZM593.03,143.7c.18.08.33.12.46.12s.24.08.33.23c-.26-.08-.46-.12-.59-.12s-.2-.08-.2-.23ZM594.35,145.69c.26,0,.4.12.4.35,0,.08-.18.12-.53.12l-.4-.23c.18-.16.35-.24.53-.24ZM595.53,147.45l.4.12c-.09.08-.22.12-.4.12s-.26-.04-.26-.12.09-.12.26-.12ZM597.38,148.27c.09,0,.22.08.4.23l-.4.12-.26-.12c0-.16.09-.23.26-.23ZM596.72,148.98c.18,0,.31.08.4.23-.62,0-.92-.08-.92-.23h.53ZM595.66,148.98v.94c-.44,0-.68-.02-.73-.06-.04-.04-.11-.06-.2-.06l-.4.12c0-.47.15-.7.46-.7s.59-.08.86-.23ZM595.27,150.27c.26,0,.4.04.4.12-.26,0-.42.04-.46.12-.04.08-.11.12-.2.12l-.13-.23.4-.12ZM597.38,153.55c.09,0,.22.08.4.23l-.4.12-.26-.12c0-.16.09-.23.26-.23ZM586.44,153.79c.09,0,.22.08.4.23l-.4.12-.13-.12c0-.16.04-.23.13-.23ZM594.87,150.97c.09.47.29.86.59,1.17.31.31.46.74.46,1.29-1.23.47-2.11.74-2.64.82l.13.12c0,.08-.13.12-.39.12,0-1.64.61-2.82,1.85-3.52ZM598.3,147.1l.13.47h-.66c0-.31.18-.47.53-.47ZM586.57,155.43c0,.47-.09.78-.26.94-.26-.23-.4-.43-.4-.59.09-.23.31-.35.66-.35,0-.78.26-1.17.79-1.17.09,0,.22.08.4.23l-.13.35.13.59-.53.35c-.18-.23-.4-.35-.66-.35ZM588.68,154.26c0,.16.11.31.33.47.22.16.33.35.33.59-.18,0-.26.04-.26.12-.18-.16-.37-.27-.59-.35-.22-.08-.33-.19-.33-.35.09-.31.26-.47.53-.47,0-.47.13-.74.4-.82,0,.16.07.29.2.41.13.12.24.25.33.41h-.92ZM591.84,152.03h-.66c0-.16-.04-.29-.13-.41-.09-.12-.13-.29-.13-.53,0-.16.04-.27.13-.35.53.47.79.86.79,1.17v.12ZM593.55,147.45l.26-.12v-.47h.79v.47c-.53,0-.88.04-1.05.12ZM594.61,141.82c.18-.16.35-.23.53-.23l.92.47c-.62.24-1.14.35-1.58.35l-.13-.12c.26,0,.4-.04.4-.12l-.13-.35h-1.58v.12c-.26,0-.4-.31-.4-.94,0-.39.13-.59.4-.59.09.16.31.27.66.35.7.08,1.05.27,1.05.59l-.13.47ZM596.45,135.14c0,.31.11.49.33.53.22.04.33.18.33.41-.18,0-.26.04-.26.12-.26-.31-.66-.47-1.19-.47,0-.63.13-.94.39-.94l.4.35c0-.31-.04-.49-.13-.53-.09-.04-.13-.14-.13-.29,0-.31.26-.47.79-.47s.79.16.79.47c-.26,0-.44.16-.53.47-.09.31-.22.47-.39.47l-.4-.12ZM589.34,119.3v.47h-.66c0-.31.22-.47.66-.47,0-.31.13-.47.4-.47.44.16.75.31.92.47-.09.08-.18.18-.26.29-.09.12-.22.18-.4.18,0-.31-.22-.47-.66-.47ZM588.15,118.48c.18,0,.26.08.26.23,0,.08-.09.12-.26.12s-.31.04-.39.12c0-.16.13-.31.39-.47l-1.32-.24c-.26,0-.62-.12-1.05-.35,0-.23.09-.43.26-.59.18-.16.29-.27.33-.35.04-.08.11-.19.2-.35.35,0,.53.18.53.53s.13.61.4.76c0-.31.13-.47.4-.47.35,0,.53.16.53.47l-.26.59ZM588.68,113.78c.18-.47.48-.7.92-.7v.7l-.26.23-.66-.23ZM588.68,113.9v.12c.62.23.92.7.92,1.41-.7,0-1.06-.35-1.06-1.06l.13-.47ZM586.31,146.51l-.79.35v.7c.18,0,.29-.12.33-.35.04-.23.2-.35.46-.35.18,0,.26.08.26.23l.26-.23c0-.23-.17-.35-.53-.35ZM614.61,101.73c.07.18.17.36.3.53.13.18.2.42.2.71-.2.12-.43.18-.7.18-.8,0-1.2-.39-1.2-1.16.13,0,.28-.04.45-.13.17-.09.49-.13.95-.13ZM612.29,98.03s.03.07.06.1c.03.03.04.08.04.14-.04.02-.08.03-.14.03-.16,0-.23-.08-.23-.23.03,0,.06,0,.09-.03.03-.02.09-.03.19-.03ZM605.95,119.89c.09.23.22.47.4.7.18.24.26.55.26.94-.26.16-.57.23-.92.23-1.05,0-1.58-.51-1.58-1.53.18,0,.37-.06.59-.18.22-.12.64-.18,1.25-.18ZM613.13,106.28c.09.08.22.12.39.12h.13v.12c-.35,0-.53-.08-.53-.23ZM608.78,109.33c.09.23.22.47.4.7.18.24.26.55.26.94-.26.16-.57.23-.92.23-1.05,0-1.58-.51-1.58-1.52.18,0,.37-.06.59-.18.22-.12.64-.18,1.25-.18ZM599.42,112.97c.09.08.22.12.4.12h.13v.12c-.35,0-.53-.08-.53-.23ZM613.51,88.35v.59h-.53v-.59h.53ZM617.07,89.28l.13.12c-.09,0-.15.04-.2.12-.04.08-.11.12-.2.12s-.13-.08-.13-.23l.4-.12ZM615.62,90.58l.66.12v.12c-.44,0-.66-.08-.66-.23ZM615.35,91.63l-.4.59c0-.23.04-.37.13-.41.09-.04.18-.1.26-.18ZM606.26,89.87c.26,0,.4.23.4.7-.35,0-.53-.16-.53-.47l.13-.23ZM608.89,89.05l.13.12h-.26c0-.08.04-.12.13-.12ZM611.4,92.8c.18,0,.26.08.26.23.35.16.53.39.53.7-.35,0-.53-.23-.53-.7-.18,0-.26-.08-.26-.23ZM610.08,93.98l-.66.23c0,.16.09.24.26.24.26,0,.4-.16.4-.47ZM615.62,93.74c0,.31.35.47,1.05.47-.18-.31-.53-.47-1.05-.47ZM577.39,87.64l.13.12c-.09.08-.22.12-.4.12s-.26-.04-.26-.12l.53-.12ZM572.38,88.58c.18,0,.26.2.26.59h-.79l-.26-.59h.79ZM568.56,91.63c.35,0,.53.08.53.23-.35,0-.53-.08-.53-.23ZM571.33,95.62c.18,0,.26.08.26.23-.35,0-.53.2-.53.59l-.13-.35c0-.31.13-.47.4-.47ZM568.03,96.21c.09,0,.26.08.53.23l-.53.12-.13-.12c0-.16.04-.23.13-.23ZM577.92,107c.09.08.22.12.4.12h.13v.12c-.35,0-.53-.08-.53-.23ZM577.26,110.87l.13.59-.13.35-.26-.7c0-.16.09-.23.26-.23ZM576.07,112.51c.09.08.22.12.39.12h.13v.12c-.35,0-.53-.08-.53-.23ZM578.71,116.5c0,.08.04.12.13.12-.09.16-.22.23-.4.23s-.26-.08-.26-.23l.53-.12ZM578.97,101.37c.18-.08.26-.16.26-.23s-.09-.12-.26-.12v.35ZM561.53,87.42h19.99l12.98,27.23h.01l10.58-23.61c.34,0,.5-.12.5-.35,0-.06-.1-.1-.3-.11l1.42-3.16h20.25l-11.94,22.54c-.13-.03-.28-.04-.45-.04h-.53c.26.16.53.27.79.35h.02s-11.84,22.35-11.84,22.35v24.5h-17.54v-24.5l-7.35-13.88c.06-.08.1-.16.12-.25.04-.16.24-.24.59-.24-.09-.16-.2-.27-.33-.35-.13-.08-.24-.2-.33-.35-.24.22-.38.4-.39.55l-16.26-30.69Z"/>
  <path class="cls-3" d="M310.92,157.12l-7.49-57.4M303.42,99.72c-.44-.39-.66-.86-.66-1.41l-.26-.23c.18,0,.26.08.26.23h.66l.13-.47c.09.23.22.35.39.35l.4-.12c0,.31-.18.47-.53.47l-.4-.23c0,.23.09.45.26.65.18.2.26.37.26.53s-.18.23-.53.23ZM310.54,156.15c-.35,0-.53-.08-.53-.23h.4c.09,0,.13.08.13.23ZM302.63,154.16l-.13-.12c.09-.08.22-.12.4-.12s.26.04.26.12l-.53.12ZM307.64,153.22c-.18,0-.26-.2-.26-.59h.79l.26.59h-.79ZM311.46,150.17c-.35,0-.53-.08-.53-.23.35,0,.53.08.53.23ZM308.7,146.18c-.18,0-.26-.08-.26-.23.35,0,.53-.2.53-.59l.13.35c0,.31-.13.47-.4.47ZM311.99,145.59c-.09,0-.26-.08-.53-.23l.53-.12.13.12c0,.16-.04.23-.13.23ZM311.86,139.26c-.44,0-.66-.08-.66-.23.44,0,.66.08.66.23ZM302.11,134.8c-.09-.08-.22-.12-.39-.12h-.13v-.12c.35,0,.53.08.53.23ZM308.7,134.8c-.09-.08-.22-.12-.4-.12h-.13v-.12c.35,0,.53.08.53.23ZM313.05,133.51c-.09-.16-.22-.23-.4-.23h-.13v-.12c.35,0,.53.12.53.35ZM302.77,130.93l-.13-.59.13-.35.26.7c0,.16-.09.24-.26.24ZM303.95,129.28c-.09-.08-.22-.12-.39-.12h-.13v-.12c.35,0,.53.08.53.23ZM309.62,128.7c.35-.94.79-1.41,1.32-1.41l-.13.23c0,.23.11.39.33.47.22.08.33.31.33.7h-.26c-.09,0-.18-.08-.26-.23-.09-.16-.22-.27-.4-.35-.18,0-.31.1-.39.29-.09.2-.26.29-.53.29ZM301.31,125.3c0-.08-.04-.12-.13-.12.09-.16.22-.23.4-.23s.26.08.26.23l-.53.12ZM301.84,124.24c-.09-.16-.2-.27-.33-.35-.13-.08-.24-.2-.33-.35.35,0,.55-.08.59-.23.04-.16.15-.31.33-.47.09.16.13.43.13.82,0,.16-.13.35-.39.59ZM303.82,122.6l-.66-.47h.79l.4-.23-.53.7ZM301.97,117.2l-.13-.12c.09-.08.22-.12.39-.12s.26.04.26.12l-.53.12ZM306.32,117.2l-.53-.12.53-.35h-1.05c0-.39.11-.59.33-.59s.46-.08.73-.24c.26.47.39.86.39,1.17-.09.08-.22.12-.39.12ZM310.01,115.68c-.09-.08-.26-.12-.53-.12h-.13v-.12c.44,0,.66.08.66.23ZM301.58,113.1l-.13-.23c0-.23.18-.35.53-.35l.53.35-.4.23h-.53ZM303.95,115.09l-.53-.35c.35,0,.53-.12.53-.35,0-.16-.11-.35-.33-.59-.22-.24-.33-.51-.33-.82,0-.23.48-.55,1.45-.94.26.47.4.86.4,1.17,0,.47-.26.82-.79,1.06.35,0,.53.04.53.12s-.02.14-.07.18c-.04.04-.07.14-.07.29s-.26.23-.79.23ZM304.35,110.87l-.26-.12c.18,0,.26.04.26.12ZM308.56,108.52l-.39-.12c.18-.16.31-.23.39-.23s.13.08.13.23c0,.08-.04.12-.13.12ZM305.8,108.99c-.61-.08-1.32-.7-2.11-1.88,1.23.16,2.11.59,2.64,1.29-.35.23-.53.43-.53.59ZM310.28,108.4c0-.39.04-.65.13-.76.09-.12.18-.25.26-.41.79,0,1.19.27,1.19.82-.53,0-.86.06-.99.18-.13.12-.33.18-.59.18ZM303.29,106.88c-.18,0-.35-.08-.53-.23l.53-.12.13.12-.13.23ZM309.36,106.41c-.26-.23-.4-.7-.4-1.41.88.16,1.32.55,1.32,1.17-.18,0-.48.08-.92.23ZM311.07,105c-.18,0-.35-.08-.53-.23.09-.08.26-.12.53-.12.09,0,.13.04.13.12l-.13.23ZM309.36,103.59c-.44,0-.66-.08-.66-.23.44,0,.66.08.66.23ZM303.69,101.83c-.26,0-.46-.08-.59-.23-.13-.16-.33-.31-.59-.47.97,0,1.45.23,1.45.7h-.26ZM306.59,101.48c-.18-.08-.33-.12-.46-.12s-.24-.08-.33-.23c.26.08.46.12.59.12s.2.08.2.23ZM305.27,99.49c-.26,0-.4-.12-.4-.35,0-.08.18-.12.53-.12l.39.24c-.18.16-.35.23-.53.23ZM304.08,97.73l-.4-.12c.09-.08.22-.12.4-.12s.26.04.26.12-.09.12-.26.12ZM302.24,96.9c-.09,0-.22-.08-.39-.23l.39-.12.26.12c0,.16-.09.23-.26.23ZM302.9,96.2c-.18,0-.31-.08-.4-.23.62,0,.92.08.92.23h-.53ZM303.95,96.2v-.94c.44,0,.68.02.73.06.04.04.11.06.2.06l.4-.12c0,.47-.15.7-.46.7s-.59.08-.86.23ZM304.35,94.91c-.26,0-.4-.04-.4-.12.26,0,.42-.04.46-.12.04-.08.11-.12.2-.12l.13.23-.4.12ZM302.24,91.63c-.09,0-.22-.08-.39-.23l.39-.12.26.12c0,.16-.09.23-.26.23ZM313.18,91.39c-.09,0-.22-.08-.4-.23l.4-.12.13.12c0,.16-.04.23-.13.23ZM304.74,94.21c-.09-.47-.29-.86-.59-1.17-.31-.31-.46-.74-.46-1.29,1.23-.47,2.11-.74,2.64-.82l-.13-.12c0-.08.13-.12.39-.12,0,1.64-.61,2.82-1.85,3.52ZM301.31,98.08l-.13-.47h.66c0,.31-.18.47-.53.47ZM313.05,89.75c0-.47.09-.78.26-.94.26.23.4.43.4.59-.09.24-.31.35-.66.35,0,.78-.26,1.17-.79,1.17-.09,0-.22-.08-.4-.23l.13-.35-.13-.59.53-.35c.18.24.4.35.66.35ZM310.94,90.92c0-.16-.11-.31-.33-.47-.22-.16-.33-.35-.33-.59.18,0,.26-.04.26-.12.18.16.37.27.59.35.22.08.33.19.33.35-.09.31-.26.47-.53.47,0,.47-.13.74-.4.82,0-.16-.07-.29-.2-.41-.13-.12-.24-.25-.33-.41h.92ZM307.77,93.15h.66c0,.16.04.29.13.41.09.12.13.29.13.53,0,.16-.04.27-.13.35-.53-.47-.79-.86-.79-1.17v-.12ZM306.06,97.73l-.26.12v.47h-.79v-.47c.53,0,.88-.04,1.06-.12ZM305.01,103.36c-.18.16-.35.23-.53.23l-.92-.47c.61-.24,1.14-.35,1.58-.35l.13.12c-.26,0-.4.04-.4.12l.13.35h1.58v-.12c.26,0,.39.31.39.94,0,.39-.13.59-.39.59-.09-.16-.31-.27-.66-.35-.7-.08-1.05-.27-1.05-.59l.13-.47ZM303.16,110.04c0-.31-.11-.49-.33-.53-.22-.04-.33-.18-.33-.41.18,0,.26-.04.26-.12.26.31.66.47,1.19.47,0,.63-.13.94-.39.94l-.4-.35c0,.31.04.49.13.53.09.04.13.14.13.29,0,.31-.26.47-.79.47s-.79-.16-.79-.47c.26,0,.44-.16.53-.47.09-.31.22-.47.39-.47l.4.12ZM310.28,125.88v-.47h.66c0,.31-.22.47-.66.47,0,.31-.13.47-.39.47-.44-.16-.75-.31-.92-.47.09-.08.18-.18.26-.29.09-.12.22-.18.39-.18,0,.31.22.47.66.47ZM311.46,126.7c-.18,0-.26-.08-.26-.23,0-.08.09-.12.26-.12s.31-.04.39-.12c0,.16-.13.31-.39.47l1.32.24c.26,0,.62.12,1.05.35,0,.23-.09.43-.26.59-.18.16-.29.27-.33.35-.04.08-.11.19-.2.35-.35,0-.53-.18-.53-.53s-.13-.61-.4-.76c0,.31-.13.47-.4.47-.35,0-.53-.16-.53-.47l.26-.59ZM310.94,131.4c-.18.47-.48.7-.92.7v-.7l.26-.23.66.23ZM310.94,131.28v-.12c-.62-.23-.92-.7-.92-1.41.7,0,1.06.35,1.06,1.06l-.13.47ZM313.31,98.66l.79-.35v-.7c-.18,0-.29.12-.33.35-.04.23-.2.35-.46.35-.18,0-.26-.08-.26-.23l-.26.23c0,.23.17.35.53.35ZM301.05,140.43c-.18.08-.26.16-.26.23s.09.12.26.12v-.35ZM297.06,87.42h17.54v69.7h-17.54v-69.7Z"/>
  <path class="cls-3" d="M772.11,157.12l-7.49-57.4M764.62,99.72c-.44-.39-.66-.86-.66-1.41l-.26-.23c.18,0,.26.08.26.23h.66l.13-.47c.09.23.22.35.39.35l.4-.12c0,.31-.18.47-.53.47l-.4-.23c0,.23.09.45.26.65.18.2.26.37.26.53s-.18.23-.53.23ZM771.74,156.15c-.35,0-.53-.08-.53-.23h.4c.09,0,.13.08.13.23ZM763.83,154.16l-.13-.12c.09-.08.22-.12.4-.12s.26.04.26.12l-.53.12ZM768.84,153.22c-.18,0-.26-.2-.26-.59h.79l.26.59h-.79ZM772.66,150.17c-.35,0-.53-.08-.53-.23.35,0,.53.08.53.23ZM769.89,146.18c-.18,0-.26-.08-.26-.23.35,0,.53-.2.53-.59l.13.35c0,.31-.13.47-.4.47ZM773.19,145.59c-.09,0-.26-.08-.53-.23l.53-.12.13.12c0,.16-.04.23-.13.23ZM773.06,139.26c-.44,0-.66-.08-.66-.23.44,0,.66.08.66.23ZM763.3,134.8c-.09-.08-.22-.12-.4-.12h-.13v-.12c.35,0,.53.08.53.23ZM769.89,134.8c-.09-.08-.22-.12-.4-.12h-.13v-.12c.35,0,.53.08.53.23ZM774.24,133.51c-.09-.16-.22-.23-.4-.23h-.13v-.12c.35,0,.53.12.53.35ZM763.96,130.93l-.13-.59.13-.35.26.7c0,.16-.09.24-.26.24ZM765.15,129.28c-.09-.08-.22-.12-.39-.12h-.13v-.12c.35,0,.53.08.53.23ZM770.82,128.7c.35-.94.79-1.41,1.32-1.41l-.13.23c0,.23.11.39.33.47.22.08.33.31.33.7h-.26c-.09,0-.18-.08-.26-.23-.09-.16-.22-.27-.4-.35-.18,0-.31.1-.39.29-.09.2-.26.29-.53.29ZM762.51,125.3c0-.08-.04-.12-.13-.12.09-.16.22-.23.4-.23s.26.08.26.23l-.53.12ZM763.04,124.24c-.09-.16-.2-.27-.33-.35-.13-.08-.24-.2-.33-.35.35,0,.55-.08.59-.23.04-.16.15-.31.33-.47.09.16.13.43.13.82,0,.16-.13.35-.4.59ZM765.02,122.6l-.66-.47h.79l.4-.23-.53.7ZM763.17,117.2l-.13-.12c.09-.08.22-.12.4-.12s.26.04.26.12l-.53.12ZM767.52,117.2l-.53-.12.53-.35h-1.05c0-.39.11-.59.33-.59s.46-.08.72-.24c.26.47.4.86.4,1.17-.09.08-.22.12-.4.12ZM771.21,115.68c-.09-.08-.26-.12-.53-.12h-.13v-.12c.44,0,.66.08.66.23ZM762.78,113.1l-.13-.23c0-.23.18-.35.53-.35l.53.35-.4.23h-.53ZM765.15,115.09l-.53-.35c.35,0,.53-.12.53-.35,0-.16-.11-.35-.33-.59-.22-.24-.33-.51-.33-.82,0-.23.48-.55,1.45-.94.26.47.4.86.4,1.17,0,.47-.26.82-.79,1.06.35,0,.53.04.53.12s-.02.14-.07.18c-.04.04-.07.14-.07.29s-.26.23-.79.23ZM765.54,110.87l-.26-.12c.18,0,.26.04.26.12ZM769.76,108.52l-.4-.12c.18-.16.31-.23.4-.23s.13.08.13.23c0,.08-.04.12-.13.12ZM767,108.99c-.61-.08-1.32-.7-2.11-1.88,1.23.16,2.11.59,2.64,1.29-.35.23-.53.43-.53.59ZM771.48,108.4c0-.39.04-.65.13-.76.09-.12.18-.25.26-.41.79,0,1.19.27,1.19.82-.53,0-.86.06-.99.18-.13.12-.33.18-.59.18ZM764.49,106.88c-.18,0-.35-.08-.53-.23l.53-.12.13.12-.13.23ZM770.55,106.41c-.26-.23-.4-.7-.4-1.41.88.16,1.32.55,1.32,1.17-.18,0-.48.08-.92.23ZM772.27,105c-.18,0-.35-.08-.53-.23.09-.08.26-.12.53-.12.09,0,.13.04.13.12l-.13.23ZM770.55,103.59c-.44,0-.66-.08-.66-.23.44,0,.66.08.66.23ZM764.89,101.83c-.26,0-.46-.08-.59-.23-.13-.16-.33-.31-.59-.47.97,0,1.45.23,1.45.7h-.26ZM767.79,101.48c-.18-.08-.33-.12-.46-.12s-.24-.08-.33-.23c.26.08.46.12.59.12s.2.08.2.23ZM766.47,99.49c-.26,0-.4-.12-.4-.35,0-.08.18-.12.53-.12l.4.24c-.18.16-.35.23-.53.23ZM765.28,97.73l-.4-.12c.09-.08.22-.12.4-.12s.26.04.26.12-.09.12-.26.12ZM763.44,96.9c-.09,0-.22-.08-.4-.23l.4-.12.26.12c0,.16-.09.23-.26.23ZM764.1,96.2c-.18,0-.31-.08-.4-.23.62,0,.92.08.92.23h-.53ZM765.15,96.2v-.94c.44,0,.68.02.73.06.04.04.11.06.2.06l.4-.12c0,.47-.15.7-.46.7s-.59.08-.86.23ZM765.54,94.91c-.26,0-.4-.04-.4-.12.27,0,.42-.04.46-.12.04-.08.11-.12.2-.12l.13.23-.4.12ZM763.44,91.63c-.09,0-.22-.08-.4-.23l.4-.12.26.12c0,.16-.09.23-.26.23ZM774.38,91.39c-.09,0-.22-.08-.4-.23l.4-.12.13.12c0,.16-.04.23-.13.23ZM765.94,94.21c-.09-.47-.29-.86-.59-1.17-.31-.31-.46-.74-.46-1.29,1.23-.47,2.11-.74,2.64-.82l-.13-.12c0-.08.13-.12.4-.12,0,1.64-.62,2.82-1.85,3.52ZM762.51,98.08l-.13-.47h.66c0,.31-.18.47-.53.47ZM774.24,89.75c0-.47.09-.78.26-.94.26.23.39.43.39.59-.09.24-.31.35-.66.35,0,.78-.26,1.17-.79,1.17-.09,0-.22-.08-.4-.23l.13-.35-.13-.59.53-.35c.18.24.4.35.66.35ZM772.14,90.92c0-.16-.11-.31-.33-.47-.22-.16-.33-.35-.33-.59.18,0,.26-.04.26-.12.18.16.37.27.59.35.22.08.33.19.33.35-.09.31-.26.47-.53.47,0,.47-.13.74-.4.82,0-.16-.07-.29-.2-.41-.13-.12-.24-.25-.33-.41h.92ZM768.97,93.15h.66c0,.16.04.29.13.41.09.12.13.29.13.53,0,.16-.04.27-.13.35-.53-.47-.79-.86-.79-1.17v-.12ZM767.26,97.73l-.26.12v.47h-.79v-.47c.53,0,.88-.04,1.05-.12ZM766.2,103.36c-.18.16-.35.23-.53.23l-.92-.47c.61-.24,1.14-.35,1.58-.35l.13.12c-.26,0-.4.04-.4.12l.13.35h1.58v-.12c.26,0,.39.31.39.94,0,.39-.13.59-.39.59-.09-.16-.31-.27-.66-.35-.7-.08-1.05-.27-1.05-.59l.13-.47ZM764.36,110.04c0-.31-.11-.49-.33-.53-.22-.04-.33-.18-.33-.41.18,0,.26-.04.26-.12.26.31.66.47,1.19.47,0,.63-.13.94-.39.94l-.4-.35c0,.31.04.49.13.53.09.04.13.14.13.29,0,.31-.26.47-.79.47s-.79-.16-.79-.47c.26,0,.44-.16.53-.47.09-.31.22-.47.4-.47l.4.12ZM771.48,125.88v-.47h.66c0,.31-.22.47-.66.47,0,.31-.13.47-.39.47-.44-.16-.75-.31-.92-.47.09-.08.18-.18.26-.29.09-.12.22-.18.4-.18,0,.31.22.47.66.47ZM772.66,126.7c-.18,0-.26-.08-.26-.23,0-.08.09-.12.26-.12s.31-.04.39-.12c0,.16-.13.31-.39.47l1.32.24c.26,0,.61.12,1.05.35,0,.23-.09.43-.26.59-.18.16-.29.27-.33.35-.04.08-.11.19-.2.35-.35,0-.53-.18-.53-.53s-.13-.61-.4-.76c0,.31-.13.47-.4.47-.35,0-.53-.16-.53-.47l.26-.59ZM772.14,131.4c-.18.47-.48.7-.92.7v-.7l.26-.23.66.23ZM772.14,131.28v-.12c-.62-.23-.92-.7-.92-1.41.7,0,1.06.35,1.06,1.06l-.13.47ZM774.51,98.66l.79-.35v-.7c-.18,0-.29.12-.33.35-.04.23-.2.35-.46.35-.18,0-.26-.08-.26-.23l-.26.23c0,.23.17.35.53.35ZM762.25,140.43c-.18.08-.26.16-.26.23s.09.12.26.12v-.35ZM758.25,87.42h17.54v69.7h-17.54v-69.7Z"/>
  <path class="cls-3" d="M214.23,157.12l-18.59-65.52M195.64,91.6v.59h-.53v-.59h.53ZM199.2,92.54l.13.12c-.09,0-.15.04-.2.12-.04.08-.11.12-.2.12s-.13-.08-.13-.23l.4-.12ZM197.75,93.83l.66.12v.12c-.44,0-.66-.08-.66-.23ZM197.49,94.89l-.4.59c0-.23.04-.37.13-.41.09-.04.17-.1.26-.18ZM188.39,93.13c.26,0,.4.23.4.7-.35,0-.53-.16-.53-.47l.13-.23ZM191.03,92.3l.13.12h-.26c0-.08.04-.12.13-.12ZM193.53,96.06c.18,0,.26.08.26.23.35.16.53.39.53.7-.35,0-.53-.24-.53-.7-.18,0-.26-.08-.26-.23ZM192.22,97.23l-.66.23c0,.16.09.24.26.24.26,0,.4-.16.4-.47ZM197.75,97c0,.31.35.47,1.05.47-.18-.31-.53-.47-1.05-.47ZM226.7,89.72c0,.31-.18.59-.53.82,0-.47.18-.74.53-.82ZM238.96,92.66c.09.23.22.47.4.7.18.23.26.55.26.94-.26.16-.57.23-.92.23-1.05,0-1.58-.51-1.58-1.52.18,0,.37-.06.59-.18.22-.12.64-.18,1.25-.18ZM229.6,96.29c.09.08.22.12.39.12h.13v.12c-.35,0-.53-.08-.53-.23ZM217.34,145.33c.44.39.66.86.66,1.41l.26.23c-.18,0-.26-.08-.26-.23h-.66l-.13.47c-.09-.24-.22-.35-.39-.35l-.4.12c0-.31.18-.47.53-.47l.4.23c0-.23-.09-.45-.26-.65-.18-.2-.26-.37-.26-.53s.17-.23.53-.23ZM210.23,88.9c.35,0,.53.08.53.23h-.4c-.09,0-.13-.08-.13-.23ZM218.14,90.9l.13.12c-.09.08-.22.12-.4.12s-.26-.04-.26-.12l.53-.12ZM223.54,90.78v.82h-.79c0-.55.09-.82.26-.82,0,.16.09.23.26.23l.26-.23ZM213.13,91.84c.18,0,.26.2.26.59h-.79l-.26-.59h.79ZM209.3,94.89c.35,0,.53.08.53.23-.35,0-.53-.08-.53-.23ZM212.07,98.87c.17,0,.26.08.26.23-.35,0-.53.19-.53.59l-.13-.35c0-.31.13-.47.4-.47ZM208.78,99.46c.09,0,.26.08.53.23l-.53.12-.13-.12c0-.16.04-.23.13-.23ZM208.91,105.8c.44,0,.66.08.66.23-.44,0-.66-.08-.66-.23ZM218.66,110.25c.09.08.22.12.4.12h.13v.12c-.35,0-.53-.08-.53-.23ZM212.07,110.25c.09.08.22.12.4.12h.13v.12c-.35,0-.53-.08-.53-.23ZM207.72,111.55c.09.16.22.23.4.23h.13v.12c-.35,0-.53-.12-.53-.35ZM218,114.13l.13.59-.13.35-.26-.7c0-.16.09-.23.26-.23ZM216.82,115.77c.09.08.22.12.39.12h.13v.12c-.35,0-.53-.08-.53-.23ZM211.15,116.35c-.35.94-.79,1.41-1.32,1.41l.13-.23c0-.23-.11-.39-.33-.47-.22-.08-.33-.31-.33-.7h.26c.09,0,.18.08.26.23.09.16.22.27.4.35.18,0,.31-.1.4-.29.09-.2.26-.29.53-.29ZM219.45,119.76c0,.08.04.12.13.12-.09.16-.22.23-.4.23s-.26-.08-.26-.23l.53-.12ZM218.93,120.81c.09.16.2.27.33.35.13.08.24.2.33.35-.35,0-.55.08-.59.23-.04.16-.15.31-.33.47-.09-.16-.13-.43-.13-.82,0-.16.13-.35.4-.59ZM216.95,122.46l.66.47h-.79l-.4.23.53-.7ZM218.79,127.85l.13.12c-.09.08-.22.12-.4.12s-.26-.04-.26-.12l.53-.12ZM214.44,127.85l.53.12-.53.35h1.05c0,.39-.11.59-.33.59s-.46.08-.72.24c-.26-.47-.4-.86-.4-1.17.09-.08.22-.12.4-.12ZM210.75,129.38c.09.08.26.12.53.12h.13v.12c-.44,0-.66-.08-.66-.23ZM219.19,131.96l.13.23c0,.24-.18.35-.53.35l-.53-.35.39-.23h.53ZM216.82,129.96l.53.35c-.35,0-.53.12-.53.35,0,.16.11.35.33.59.22.24.33.51.33.82,0,.23-.48.55-1.45.94-.26-.47-.4-.86-.4-1.17,0-.47.26-.82.79-1.06-.35,0-.53-.04-.53-.12s.02-.14.07-.18c.04-.04.07-.14.07-.29s.26-.23.79-.23ZM216.42,134.19l.26.12c-.18,0-.26-.04-.26-.12ZM212.2,136.53l.4.12c-.18.16-.31.23-.4.23s-.13-.08-.13-.23c0-.08.04-.12.13-.12ZM214.97,136.06c.61.08,1.32.7,2.11,1.88-1.23-.16-2.11-.59-2.64-1.29.35-.23.53-.43.53-.59ZM210.49,136.65c0,.39-.04.65-.13.76-.09.12-.18.25-.26.41-.79,0-1.19-.27-1.19-.82.53,0,.86-.06.99-.18.13-.12.33-.18.59-.18ZM217.48,138.18c.18,0,.35.08.53.23l-.53.12-.13-.12.13-.23ZM211.41,138.65c.26.23.4.7.4,1.41-.88-.16-1.32-.55-1.32-1.17.18,0,.48-.08.92-.23ZM209.7,140.05c.18,0,.35.08.53.23-.09.08-.26.12-.53.12-.09,0-.13-.04-.13-.12l.13-.23ZM211.41,141.46c.44,0,.66.08.66.23-.44,0-.66-.08-.66-.23ZM217.08,143.22c.26,0,.46.08.59.23.13.16.33.31.59.47-.97,0-1.45-.23-1.45-.7h.26ZM214.18,143.57c.18.08.33.12.46.12s.24.08.33.23c-.26-.08-.46-.12-.59-.12s-.2-.08-.2-.23ZM215.5,145.57c.26,0,.4.12.4.35,0,.08-.18.12-.53.12l-.4-.23c.18-.16.35-.23.53-.23ZM216.69,147.33l.4.12c-.09.08-.22.12-.4.12s-.26-.04-.26-.12.09-.12.26-.12ZM218.53,148.15c.09,0,.22.08.4.23l-.4.12-.26-.12c0-.16.09-.23.26-.23ZM217.87,148.85c.18,0,.31.08.4.23-.62,0-.92-.08-.92-.23h.53ZM216.82,148.85v.94c-.44,0-.68-.02-.73-.06-.04-.04-.11-.06-.2-.06l-.4.12c0-.47.15-.7.46-.7s.59-.08.86-.23ZM216.42,150.14c.26,0,.4.04.4.12-.26,0-.42.04-.46.12-.04.08-.11.12-.2.12l-.13-.23.4-.12ZM218.53,153.43c.09,0,.22.08.4.23l-.4.12-.26-.12c0-.16.09-.23.26-.23ZM207.59,153.66c.09,0,.22.08.4.23l-.4.12-.13-.12c0-.16.04-.23.13-.23ZM216.03,150.85c.09.47.29.86.59,1.17.31.31.46.74.46,1.29-1.23.47-2.11.74-2.64.82l.13.12c0,.08-.13.12-.39.12,0-1.64.61-2.82,1.85-3.52ZM219.45,146.97l.13.47h-.66c0-.31.18-.47.53-.47ZM207.72,155.3c0,.47-.09.78-.26.94-.26-.23-.39-.43-.39-.59.09-.23.31-.35.66-.35,0-.78.26-1.17.79-1.17.09,0,.22.08.4.23l-.13.35.13.59-.53.35c-.18-.23-.4-.35-.66-.35ZM209.83,154.13c0,.16.11.31.33.47.22.16.33.35.33.59-.18,0-.26.04-.26.12-.18-.16-.37-.27-.59-.35-.22-.08-.33-.19-.33-.35.09-.31.26-.47.53-.47,0-.47.13-.74.4-.82,0,.16.07.29.2.41.13.12.24.25.33.41h-.92ZM212.99,151.9h-.66c0-.16-.04-.29-.13-.41-.09-.12-.13-.29-.13-.53,0-.16.04-.27.13-.35.53.47.79.86.79,1.17v.12ZM214.71,147.33l.26-.12v-.47h.79v.47c-.53,0-.88.04-1.05.12ZM215.76,141.7c.18-.16.35-.23.53-.23l.92.47c-.61.24-1.14.35-1.58.35l-.13-.12c.26,0,.4-.04.4-.12l-.13-.35h-1.58v.12c-.26,0-.39-.31-.39-.94,0-.39.13-.59.39-.59.09.16.31.27.66.35.7.08,1.05.27,1.05.59l-.13.47ZM217.61,135.01c0,.31.11.49.33.53.22.04.33.18.33.41-.18,0-.26.04-.26.12-.26-.31-.66-.47-1.19-.47,0-.63.13-.94.39-.94l.4.35c0-.31-.04-.49-.13-.53-.09-.04-.13-.14-.13-.29,0-.31.26-.47.79-.47s.79.16.79.47c-.26,0-.44.16-.53.47-.09.31-.22.47-.4.47l-.39-.12ZM210.49,119.17v.47h-.66c0-.31.22-.47.66-.47,0-.31.13-.47.39-.47.44.16.75.31.92.47-.09.08-.18.18-.26.29-.09.12-.22.18-.39.18,0-.31-.22-.47-.66-.47ZM209.3,118.35c.18,0,.26.08.26.23,0,.08-.09.12-.26.12s-.31.04-.39.12c0-.16.13-.31.39-.47l-1.32-.24c-.26,0-.62-.12-1.05-.35,0-.23.09-.43.26-.59.18-.16.29-.27.33-.35.04-.08.11-.19.2-.35.35,0,.53.18.53.53s.13.61.4.76c0-.31.13-.47.4-.47.35,0,.53.16.53.47l-.26.59ZM209.83,113.66c.18-.47.48-.7.92-.7v.7l-.26.23-.66-.23ZM209.83,113.77v.12c.62.23.92.7.92,1.41-.7,0-1.05-.35-1.05-1.06l.13-.47ZM207.46,146.39l-.79.35v.7c.18,0,.29-.12.33-.35.04-.23.2-.35.46-.35.18,0,.26.08.26.23l.26-.23c0-.23-.18-.35-.53-.35ZM219.72,104.62c.18-.08.26-.16.26-.23s-.09-.12-.26-.12v.35ZM188.01,87.42h51.75v16.17h-17.1v53.53h-17.54v-53.53h-17.11v-16.17Z"/>
  <path class="cls-3" d="M721.16,156.38l19.5-20.47M740.67,135.91c-.06-.26-.12-.52-.18-.77-.06-.26-.08-.54-.06-.84l.28.43c.33.5.31.9-.05,1.18.19.29.24.45.16.49-.24.12-.46.04-.65-.24l.17-.23.31-.02ZM743.71,131.61c-.03.11,0,.24.09.39l.07.11-.12.06c-.19-.29-.2-.47-.04-.56ZM734.75,118.05c-.32.17-.7.17-1.13,0,.49-.25.86-.25,1.13,0ZM738.24,129.67c-.2.2-.37.43-.52.7-.15.27-.43.51-.83.72-.3-.13-.55-.34-.73-.63-.56-.86-.32-1.57.74-2.11.09.14.26.28.5.39.24.12.52.43.85.93ZM742.03,136.51c.14.22-.03.45-.52.7-.19-.29-.12-.52.21-.68l.31-.02ZM744.28,138.24l-.05.17-.14-.22c.08-.04.14-.03.19.05ZM741.73,142.29c.09.14.06.26-.1.34.03.37-.12.64-.45.81-.19-.29-.04-.56.45-.81-.09-.14-.06-.26.1-.34ZM739.81,141.83l-.59-.42c-.16.08-.2.2-.1.34.14.22.37.24.7.07ZM731.49,149.54c.47.42.7.92.7,1.5l.28.25c-.19,0-.28-.08-.28-.25h-.7l-.14.5c-.09-.25-.23-.37-.42-.37l-.42.12c0-.33.19-.5.56-.5l.42.25c0-.25-.09-.48-.28-.69-.19-.21-.28-.39-.28-.56s.19-.25.56-.25ZM730.86,141.18c.11.15.23.32.35.49-.53-.07-1.01-.18-1.42-.35.37-.03.72-.08,1.07-.14ZM731.63,141.92c.19,0,.37.08.56.25l-.56.12-.14-.12.14-.25ZM725.18,142.42c.28.25.42.75.42,1.5-.94-.17-1.4-.58-1.4-1.25.19,0,.51-.08.98-.25ZM723.35,143.92c.19,0,.37.08.56.25-.09.08-.28.12-.56.12-.09,0-.14-.04-.14-.12l.14-.25ZM725.18,145.42c.47,0,.7.08.7.25-.47,0-.7-.08-.7-.25ZM731.21,147.29c.28,0,.49.08.63.25.14.17.35.33.63.5-1.03,0-1.54-.25-1.54-.75h.28ZM728.12,147.67c.19.08.35.13.49.13s.26.08.35.25c-.28-.08-.49-.12-.63-.12s-.21-.08-.21-.25ZM729.53,149.79c.28,0,.42.12.42.38,0,.08-.19.13-.56.13l-.42-.25c.19-.17.37-.25.56-.25ZM730.79,151.66l.42.13c-.09.08-.23.12-.42.12s-.28-.04-.28-.12.09-.13.28-.13ZM732.75,152.54c.09,0,.23.08.42.25l-.42.13-.28-.13c0-.17.09-.25.28-.25ZM732.05,153.29c.19,0,.33.08.42.25-.66,0-.98-.08-.98-.25h.56ZM730.93,153.29v1c-.47,0-.73-.02-.77-.06-.05-.04-.12-.06-.21-.06l-.42.12c0-.5.16-.75.49-.75s.63-.08.91-.25ZM730.51,154.66c.28,0,.42.04.42.12-.28,0-.45.04-.49.13-.05.08-.12.12-.21.12l-.14-.25.42-.12ZM733.74,151.29l.14.5h-.7c0-.33.19-.5.56-.5ZM726.86,156.53h-.7c0-.17-.05-.31-.14-.44-.09-.12-.14-.31-.14-.56,0-.17.05-.29.14-.38.56.5.84.92.84,1.25v.12ZM728.69,151.66l.28-.12v-.5h.84v.5c-.56,0-.94.04-1.12.12ZM729.81,145.67c.19-.17.37-.25.56-.25l.98.5c-.65.25-1.21.38-1.68.38l-.14-.12c.28,0,.42-.04.42-.13l-.14-.38h-1.68v.13c-.28,0-.42-.33-.42-1,0-.42.14-.62.42-.62.09.17.33.29.7.38.75.08,1.12.29,1.12.62l-.14.5ZM720.97,150.66l-.84.37v.75c.19,0,.3-.13.35-.37.05-.25.21-.38.49-.38.19,0,.28.08.28.25l.28-.25c0-.25-.19-.37-.56-.37ZM741.58,107.13c-.28-.08-.56-.17-.84-.25-.28-.08-.56-.21-.84-.37h.56c.65,0,1.03.21,1.12.62.37,0,.56.04.56.12,0,.25-.19.38-.56.38l-.14-.25.14-.25ZM738.91,102.63c.09.08.23.12.42.12h.14v.12c-.37,0-.56-.08-.56-.25ZM742.84,106.38c.28,0,.42.25.42.75-.37,0-.56-.17-.56-.5l.14-.25ZM745.65,105.51l.14.12h-.28c0-.08.05-.12.14-.12ZM740.94,91.12c-.28-.08-.56-.17-.84-.25-.28-.08-.56-.21-.84-.37h.56c.65,0,1.03.21,1.12.62.37,0,.56.04.56.12,0,.25-.19.38-.56.38l-.14-.25.14-.25ZM720.6,86.75c0,.33-.19.63-.56.87,0-.5.19-.79.56-.87ZM733.65,89.87c.09.25.23.5.42.75.19.25.28.58.28,1-.28.17-.61.25-.98.25-1.12,0-1.68-.54-1.68-1.62.19,0,.4-.06.63-.19.23-.12.68-.19,1.33-.19ZM723.69,93.74c.09.08.23.12.42.12h.14v.13c-.37,0-.56-.08-.56-.25ZM742.21,90.37c.28,0,.42.25.42.75-.37,0-.56-.17-.56-.5l.14-.25ZM745.62,94.97h-.04c0,.13.05.21.14.24l-.1-.24ZM710.64,145.94c.47.42.7.92.7,1.5l.28.25c-.19,0-.28-.08-.28-.25h-.7l-.14.5c-.09-.25-.23-.37-.42-.37l-.42.12c0-.33.19-.5.56-.5l.42.25c0-.25-.09-.48-.28-.69-.19-.21-.28-.4-.28-.56s.19-.25.56-.25ZM711.48,87.99l.14.12c-.09.08-.23.13-.42.13s-.28-.04-.28-.13l.56-.12ZM717.23,87.87v.87h-.84c0-.58.09-.87.28-.87,0,.17.09.25.28.25l.28-.25ZM706.15,88.99c.19,0,.28.21.28.62h-.84l-.28-.62h.84ZM702.08,92.24c.38,0,.56.08.56.25-.37,0-.56-.08-.56-.25ZM705.03,96.49c.19,0,.28.08.28.25-.37,0-.56.21-.56.62l-.14-.38c0-.33.14-.5.42-.5ZM701.52,97.11c.09,0,.28.08.56.25l-.56.12-.14-.12c0-.17.05-.25.14-.25ZM701.66,103.85c.47,0,.7.08.7.25-.47,0-.7-.08-.7-.25ZM705.03,108.6c.09.08.23.13.42.13h.14v.12c-.37,0-.56-.08-.56-.25ZM700.4,109.97c.09.17.23.25.42.25h.14v.13c-.37,0-.56-.13-.56-.37ZM711.34,112.72l.14.62-.14.37-.28-.75c0-.17.09-.25.28-.25ZM710.08,114.47c.09.08.23.12.42.12h.14v.13c-.37,0-.56-.08-.56-.25ZM704.04,115.09c-.37,1-.84,1.5-1.4,1.5l.14-.25c0-.25-.12-.42-.35-.5-.23-.08-.35-.33-.35-.75h.28c.09,0,.19.08.28.25.09.17.23.29.42.37.19,0,.33-.1.42-.31.09-.21.28-.31.56-.31ZM712.67,119.09s-.05,0-.07,0c-.19,0-.28-.08-.28-.25l.35-.08v.32ZM712.32,119.84c.09.17.21.29.35.37v.41c-.16.04-.25.11-.28.21-.05.17-.16.33-.35.5-.09-.17-.14-.46-.14-.87,0-.17.14-.37.42-.62ZM710.22,121.59l.7.5h-.84l-.42.25.56-.75ZM712.18,127.33l.14.12c-.09.08-.23.12-.42.12s-.28-.04-.28-.12l.56-.12ZM709.66,134.08l.28.13c-.19,0-.28-.04-.28-.13ZM705.17,136.57l.42.12c-.19.17-.33.25-.42.25s-.14-.08-.14-.25c0-.08.05-.12.14-.12ZM708.11,136.07c.65.08,1.4.75,2.25,2-1.31-.17-2.25-.62-2.81-1.37.37-.25.56-.46.56-.62ZM703.34,136.7c0,.42-.05.69-.14.81-.09.12-.19.27-.28.44-.84,0-1.26-.29-1.26-.87.56,0,.91-.06,1.05-.19.14-.12.35-.19.63-.19ZM704.32,138.82c.28.25.42.75.42,1.5-.94-.17-1.4-.58-1.4-1.25.19,0,.51-.08.98-.25ZM702.5,140.32c.19,0,.37.08.56.25-.09.08-.28.12-.56.12-.09,0-.14-.04-.14-.12l.14-.25ZM704.32,141.82c.47,0,.7.08.7.25-.47,0-.7-.08-.7-.25ZM710.36,143.69c.28,0,.49.08.63.25.14.17.35.33.63.5-1.03,0-1.54-.25-1.54-.75h.28ZM707.27,144.07c.19.08.35.12.49.12s.26.08.35.25c-.28-.08-.49-.12-.63-.12s-.21-.08-.21-.25ZM708.67,146.19c.28,0,.42.13.42.37,0,.08-.19.13-.56.13l-.42-.25c.19-.17.37-.25.56-.25ZM709.94,148.06l.42.12c-.09.08-.23.12-.42.12s-.28-.04-.28-.12.09-.12.28-.12ZM711.9,148.94c.09,0,.23.08.42.25l-.42.12-.28-.12c0-.17.09-.25.28-.25ZM711.2,149.69c.19,0,.33.08.42.25-.65,0-.98-.08-.98-.25h.56ZM710.08,149.69v1c-.47,0-.73-.02-.77-.06-.05-.04-.12-.06-.21-.06l-.42.13c0-.5.16-.75.49-.75s.63-.08.91-.25ZM709.66,151.06c.28,0,.42.04.42.12-.28,0-.44.04-.49.12-.05.08-.12.12-.21.12l-.14-.25.42-.12ZM711.9,154.56c.09,0,.23.08.42.25l-.42.12-.28-.12c0-.17.09-.25.28-.25ZM709.23,151.81c.09.5.3.92.63,1.25.33.33.49.79.49,1.37-1.31.5-2.25.79-2.81.87l.14.12c0,.08-.14.12-.42.12,0-1.75.65-3,1.96-3.75ZM712.88,147.69l.14.5h-.7c0-.33.19-.5.56-.5ZM706.01,152.93h-.7c0-.17-.05-.31-.14-.44-.09-.12-.14-.31-.14-.56,0-.17.05-.29.14-.38.56.5.84.92.84,1.25v.12ZM707.83,148.06l.28-.12v-.5h.84v.5c-.56,0-.94.04-1.12.12ZM708.95,142.07c.19-.17.37-.25.56-.25l.98.5c-.65.25-1.22.38-1.68.38l-.14-.12c.28,0,.42-.04.42-.13l-.14-.38h-1.68v.13c-.28,0-.42-.33-.42-1,0-.42.14-.62.42-.62.09.17.33.29.7.38.75.08,1.12.29,1.12.62l-.14.5ZM703.34,118.09v.5h-.7c0-.33.23-.5.7-.5,0-.33.14-.5.42-.5.47.17.8.33.98.5-.09.08-.19.19-.28.31-.09.13-.23.19-.42.19,0-.33-.23-.5-.7-.5ZM702.08,117.22c.19,0,.28.08.28.25,0,.08-.09.12-.28.12s-.33.04-.42.12c0-.17.14-.33.42-.5l-1.4-.25c-.28,0-.66-.13-1.12-.38,0-.25.09-.46.28-.62.19-.17.3-.29.35-.37.05-.08.12-.21.21-.37.37,0,.56.19.56.56s.14.64.42.81c0-.33.14-.5.42-.5.37,0,.56.17.56.5l-.28.63ZM702.64,112.22c.19-.5.51-.75.98-.75v.75l-.28.25-.7-.25ZM702.64,112.35v.12c.66.25.98.75.98,1.5-.75,0-1.12-.37-1.12-1.12l.14-.5ZM700.11,147.06l-.84.37v.75c.19,0,.3-.12.35-.37.05-.25.21-.38.49-.38.19,0,.28.08.28.25l.28-.25c0-.25-.19-.37-.56-.37ZM709.94,133.89c0,1.93.24,3.48.72,4.64h0s-.02.04-.02.04l.06.05c.33.76.76,1.35,1.3,1.76,1.37,1.07,4.44,1.6,9.21,1.6s7.69-.45,8.9-1.36c1.23-.91,1.84-2.74,1.84-5.51s-.53-4.51-1.59-5.19c-1.05-.67-3.7-1.04-7.92-1.13-5.74-.14-10.53-.56-14.38-1.28l.06-.04-.56-.12c-.08,0-.16,0-.22.03h0c-3.69-.76-6.47-1.78-8.31-3.12-3.83-2.79-5.74-8.3-5.74-16.56,0-9.06,2.06-14.93,6.17-17.66,4.12-2.73,11.32-4.09,21.58-4.09s17.81,1.41,21.18,4.21c3.38,2.82,5.13,7.96,5.28,15.43v2.85h-16.67c-.15-3.05-.76-5.03-1.86-5.93-1.05-.94-3.57-1.41-7.54-1.41-4.47,0-7.37.42-8.65,1.27-1.3.82-1.94,2.54-1.94,5.14,0,2.06.45,3.56,1.37,4.49.93.91,3.1,1.46,6.48,1.64,6.97.36,13.07.91,18.27,1.64,5.22.71,8.77,3.19,10.63,7.39,1.29,2.94,1.93,7.4,1.93,13.4,0,7.48-1.86,12.86-5.57,16.16-2.54,2.26-6.95,3.74-13.21,4.44-.33-.33-.53-.75-.63-1.24-.64.36-1.12.84-1.44,1.44-2.28.18-4.77.27-7.48.27-7.8,0-13.77-.75-17.9-2.26-.13-.12-.2-.27-.2-.43-.13.04-.23.12-.29.24-2.39-.94-4.1-2.16-5.17-3.63-2.88-4.04-4.33-9.76-4.33-17.15h16.67Z"/>
  <path class="cls-3" d="M664.86,106.61c.39.13.58.32.58.58-.39-.13-.58-.32-.58-.58M663.24,107.49c.08-.45.62-.84,1.62-1.16v.29c-.46,0-.75.15-.87.44-.12.29-.37.44-.75.44ZM663,105.84c-.46,0-.71-.1-.75-.29-.04-.19-.1-.39-.17-.58.23,0,.54-.06.93-.19v1.07ZM657.56,101.76c-.23,0-.35-.1-.35-.29,0-.06.08-.1.23-.1l.35.1c0,.19-.08.29-.23.29ZM628.4,134.18c.46,0,.77-.23.93-.68l-.23-.1c-.23,0-.35.06-.35.19l.12.29-.58-.39-.23.39c0,.19.12.29.35.29ZM658.26,149.7c.15-.13.29-.19.4-.19s.17-.06.17-.19c-.15.06-.29.1-.41.1s-.17.1-.17.29ZM668.33,126.9c.08,0,.12-.06.12-.19l-.35-.1-.12.1c.08,0,.14.03.17.1.04.06.1.1.17.1ZM668.21,117.87c.39-.26.58-.58.58-.97,0-.45-.27-.68-.81-.68s-.81.26-.81.78c0,.45.35.74,1.04.87ZM666.82,115.74l-.23-.19c0,.13.08.19.23.19ZM668.21,114.09l-.23-.1c0,.07.08.1.23.1ZM667.06,113.5c.62,0,.93-.23.93-.68l-.93-.19-.23.19c0,.13.04.24.12.34.08.1.12.21.12.34ZM659.76,108.65c.46,0,.69-.23.69-.68,0-.07.04-.1.12-.1h-.12c0,.13-.12.19-.35.19l-.46-.1v.58l.12.1ZM650.74,102.83v-.19l.46.19h-.46v.58c.31,0,.5-.08.58-.24.08-.16.19-.24.35-.24.08,0,.15.08.23.24.08.16.5.24,1.27.24v.19c.08,0,.12-.03.12-.1l-.12-.1v-.58c.31,0,.56.06.75.19.19.13.37.19.52.19.23,0,.35-.19.35-.58-.31,0-.46-.03-.46-.1l.23-.29c-.23-.07-.54-.1-.93-.1-.69,0-1.04.16-1.04.48-.39,0-.58-.06-.58-.19v-.78c0-.39-.27-.65-.81-.78.15-.13.23-.26.23-.39s-.19-.19-.58-.19c-.15,0-.5.1-1.04.29h-.46c0,.32.12.49.35.49.08-.06.12-.23.12-.49l.23.49.46-.49c.15.06.23.16.23.29l-.12.97.35.39-.23.39h-.23c0,.13.08.19.23.19ZM633.49,138.83c.23,0,.5-.13.81-.39-.54,0-1-.06-1.39-.19v.29c0,.19.19.29.58.29ZM637.08,137.86c0-.26-.23-.45-.69-.58,0,.26.23.45.69.58ZM630.13,137.48c.39,0,.69-.06.93-.19.23-.13.42-.19.58-.19.23,0,.46.07.69.19.08-.06.12-.19.12-.39,0-.13-.04-.19-.12-.19l-.69.19c-.39,0-.58-.13-.58-.39v-.39c0-.19-.27-.29-.81-.29.08.19.12.49.12.87,0,.32-.15.58-.46.78h.23ZM631.41,132.72c.08-.06.17-.1.29-.1s.17-.07.17-.19c-.31.13-.46.23-.46.29ZM632.91,130.58c.23,0,.39-.03.46-.1.08-.06.19-.1.35-.1h.35c0-.32-.06-.55-.17-.68-.12-.13-.17-.26-.17-.39-1.08,0-1.62.1-1.62.29.31,0,.44.16.41.49-.04.32.1.49.41.49ZM637.54,124.37c.15,0,.23-.06.23-.19-.46,0-.7.06-.7.19h.46ZM641.94,123.02l.81-.19v-.68c-.15-.19-.35-.29-.58-.29-.69,0-1.04.32-1.04.97.08.13.35.19.81.19ZM636.85,123.5c.77,0,1.31-.29,1.62-.87-.62-.71-1.16-1.1-1.62-1.16-.54.26-.81.52-.81.78s-.04.58-.12.97c.15.19.46.29.93.29ZM637.77,115.93c.46,0,.69-.06.69-.19-.46,0-.69.07-.69.19ZM648.19,109.33v-.1c0-.13.06-.24.17-.34.12-.1.25-.21.41-.34l-.35-.1c-.31,0-.46.19-.46.58l.23.29ZM647.96,108.36c.08-.06.12-.16.12-.29,0-.19-.12-.29-.35-.29,0,.19-.12.39-.35.58h.58ZM644.6,107.97c0-.19.15-.49.46-.87-.46.06-.69.26-.69.58l.23.29ZM645.64,105.16c.62-.26.93-.45.93-.58-.62,0-.93.19-.93.58ZM651.78,104.58c-.08-.13-.23-.19-.46-.19l.46.19ZM646.8,104.29v-.48l-.46-.19c0,.26-.19.39-.58.39.15.06.29.13.41.19.12.07.33.1.64.1ZM653.63,103.61c.39,0,.58-.07.58-.19-.39,0-.58.06-.58.19ZM649.35,103.41c0-.06.04-.1.12-.1-.08,0-.12.03-.12.1ZM649.58,104.29c0-.26-.04-.44-.12-.53-.08-.1-.12-.21-.12-.34l-.81-.1c-.39,0-.58.19-.58.58l.12.39h1.5ZM649.46,102.25c.31,0,.46-.1.46-.29s-.19-.42-.58-.68c0,.32-.19.49-.58.49.15.06.27.16.35.29.08.13.19.19.35.19ZM646.8,103.22l-.12.1M647.38,103.61l1.04-1.36c-.15-.13-.31-.19-.46-.19s-.27.07-.35.19c-.08.13-.19.19-.35.19-.08,0-.23-.06-.46-.19.39-.13.58-.29.58-.49-.08-.32-.35-.49-.81-.49,0,.45-.04.76-.12.92-.08.16-.15.34-.23.53,0,.06.1.11.29.15.19.03.29.15.29.34.23.26.43.39.58.39ZM658.84,100.99c.23,0,.35-.03.35-.1-.15,0-.25-.03-.29-.1-.04-.06-.14-.1-.29-.1,0,.19.08.29.23.29ZM650.5,99.82l.23-.1c-.15,0-.23-.03-.23-.1s-.12-.1-.35-.1l-.12.19.46.1ZM656.41,99.24l.11-.19c0-.19-.15-.29-.46-.29l-.58.29.93.19ZM654.32,98.46l.23-.19h-.35l.12.19ZM653.17,98.85l.12-.68c-.15-.19-.31-.29-.46-.29.08.13.12.31.12.53s.08.37.23.44ZM647.49,99.05c.62,0,.93-.26.93-.78l-.23-.39c0,.32-.17.49-.52.49s-.52.23-.52.68h.35ZM655.48,96.52l.58-.1.12-.1c-.46,0-.7.06-.7.19ZM648.3,96.81c1.08,0,1.62-.13,1.62-.39s-.19-.39-.58-.39c-.08.19-.33.29-.75.29s-.64.13-.64.39c.08.06.19.1.35.1ZM652.36,97.49l-.35-.68.46-.39c0-.06-.21-.16-.64-.29-.42-.13-.71-.23-.87-.29,0,.97.46,1.52,1.39,1.65ZM656.41,96.04l.11-.19c0-.19-.15-.29-.46-.29l-.58.29c.31.13.62.19.93.19ZM650.5,95.65c.15,0,.23-.03.23-.1l-.58-.1c0,.06-.04.1-.12.1.08.06.23.1.46.1ZM655.02,94.87c.31,0,.46-.06.46-.19-.31,0-.46.06-.46.19ZM652.82,95.55c.15-.13.23-.23.23-.29,0-.13-.15-.32-.46-.58,0,.52.08.81.23.87ZM650.5,94.19c.08-.06.19-.1.35-.1v.1l.12-.19c-.31,0-.46.06-.46.19ZM650.5,93.32c.31,0,.46-.06.46-.19-.31,0-.46.06-.46.19ZM655.48,90.31l.23-.29c0-.32-.08-.49-.23-.49s-.23.1-.23.29l.23.49ZM658.14,94.39l.12-.19h-.23l.12.19ZM653.86,99.92l.12-.19c.31.13.58.19.81.19l-.69-.78-.12.58c-.15,0-.23.03-.23.1l.12.1ZM653.17,99.72c.15,0,.23-.16.23-.48-.15,0-.23.16-.23.48ZM648.42,101.08c.31,0,.44-.1.41-.29-.04-.19.02-.29.17-.29l-.23-.1c-.31.19-.5.42-.58.68h.23ZM655.48,102.83c.23,0,.35-.03.35-.1l-.35-.1v.19ZM661.96,103.61c.46,0,.7-.1.7-.29-.23-.13-.42-.19-.58-.19l-.23.1-.46-.39c0,.26.04.42.12.49l.35-.1v.39h.12ZM659.42,101.96c0-.13-.08-.29-.23-.49,0,.19.08.36.23.49ZM655.71,103.8c.08,0,.12-.07.12-.19.15,0,.23-.07.23-.19-.16,0-.23.06-.23.19-.08,0-.12.06-.12.19ZM656.41,103.41c0-.13-.04-.19-.12-.19l-.11.19h.23ZM651.43,112.73c0-.13-.15-.19-.46-.19,0,.13.15.19.46.19ZM645.06,102.34l-.12-.1c0,.06.04.1.12.1ZM652.82,88.56l-.12-.49-.35.19.46.29ZM642.76,101.5c.03-.07.06-.13.1-.2.07-.29.16-.59.23-.85.23-.77.61-1.52,1.25-2,.85-2.84,2.93-6.24,4.32-8.44l1.39-2.33c.11-.75.44-1.45.98-2.05.02-.04.02-.13.02-.17,0-1.15,1.05-2.08,2.34-2.08,2.35,0,3.3,1.7,3.54,3.46,1.47,1.79,3.87,6.76,4.49,7.94.15.29.22.56.22.87,0,.08,0,.15-.01.23.1.1.19.21.27.31.29.37.43.76.43,1.21v1.55c0,.05,0,.1,0,.15,1.14.32,2.12.99,2.33,2.04.02.04.05.09.07.13.09.15.16.31.2.47.47.5.76,1.11.76,1.86,0,.25-.02.5-.05.75.19.06.38.15.56.26.34.21.6.48.77.79.48.44.77,1.01.81,1.67.68,1.01,1.34,2.23,1.91,3.22,1.66,2.85,3.28,5.72,4.92,8.62,4.5,8.37,9.01,16.76,13.38,25.18,1.2,2.31,2.4,4.63,3.54,6.96.5,1.02,1.24,2.41,1.53,3.48.18.64.03,1.26-.43,1.78-.46.52-1.1.8-1.84.8h-52.09c-1.29,0-2.34-.94-2.34-2.08,0-1.46,1.62-4.7,2.24-6,.76-1.72,1.57-3.63,2.54-5.26.42-.7,1.18-1.11,2.07-1.11h26.03c-.58-1.05-1.3-2.1-1.74-2.73-.22-.32-.34-.65-.35-1.02-.21-.2-.4-.42-.54-.66-.02-.04-.04-.07-.06-.1-2.37-4.55-4.79-9.09-7.27-13.6-1.99-3.62-3.87-7.29-5.64-11-.41.82-.85,1.64-1.26,2.43-1.47,2.85-2.97,5.7-4.47,8.54-5.53,10.48-11.11,20.94-16.7,31.4-.4.74-1.19,1.19-2.11,1.19h-12.5c-.82,0-1.53-.34-1.97-.96-.44-.62-.5-1.33-.16-2l3.33-6.45c1.76-3.66,3.56-7.36,5.55-10.92.55-.98,1.52-2.81,2.59-4.02v-.35c0-.81.51-1.51,1.27-1.86,0-.94.45-1.77,1.16-2.44.02-.19.08-.38.17-.57.18-.39.46-.7.82-.92.28-.45.6-1.34.73-1.73.03-.09.07-.17.11-.26,1.48-2.8,2.89-5.62,4.25-8.47,1.42-2.98,3.05-5.88,4.88-8.68.25-.38.6-.66,1.01-.84.29-.62.53-1.26.71-1.92.33-1.18.91-2.27,1.7-3.25Z"/>
  <polygon class="cls-2" points="71.52 87.42 123.27 87.42 123.27 103.59 106.16 103.59 106.16 157.12 88.62 157.12 88.62 103.59 71.52 103.59 71.52 87.42"/>
  <path class="cls-2" d="M118.69,157.12h12.5c1.29.08,2.15-.9,2.79-2.44,7.25-13.71,14.51-27.41,21.76-41.12,5.2,9.7,10.4,19.4,15.6,29.11h-26.03c-.81,0-1.52.34-2.07,1.11-1.74,3.36-3.34,6.77-4.64,10.31-.4,1.75.15,2.88,2.2,3.04h52.09c1.61,0,2.73-1.32,2.2-2.83-12.14-22.95-24.27-45.9-36.41-68.84-1.36-2.48-3.68-3.16-5.52,0-12.15,22.82-24.3,45.63-36.45,68.45-.8,1.59.07,3.06,1.99,3.23Z"/>
  <polygon class="cls-2" points="245.48 87.42 263.02 87.42 263.02 140.95 290.48 140.95 290.48 157.12 245.48 157.12 245.48 87.42"/>
  <rect class="cls-2" x="297.06" y="87.42" width="17.54" height="69.7"/>
  <path class="cls-2" d="M356.18,87.42h36.05c13.83.03,21.5,6.82,23.56,19.76.45,8.76.77,17.65,0,27.53-.24,14.23-7.07,21.68-20.54,22.29h-39.08v-69.58Z"/>
  <path class="cls-2" d="M373.72,103.59h16.42c4.87-.09,7.6,2.4,7.87,7.87v19.39c-.18,6.84-3.54,9.57-8.61,10.07h-15.69v-37.34Z"/>
  <path class="cls-2" d="M425.02,86.68h17.54v46.52c.05,4.07,1.29,6.72,4.36,7.16,4.64.88,9.2.72,13.7-.31,2.43-1.04,3.31-3.14,3.36-5.81v-47.56h17.61v50.53c-.93,8.42-4.27,14.61-11.04,17.6-9.24,2.6-20.1,3.57-35.26.02-6.63-1.71-9.89-8.14-10.24-18.66-.01-16.5-.03-33-.04-49.49Z"/>
  <polygon class="cls-2" points="492.65 157.12 492.65 87.42 522.22 87.42 541.34 140.24 541.34 87.42 558.88 87.42 558.88 157.12 529.06 157.12 510.2 104.85 510.2 157.12 492.65 157.12"/>
  <rect class="cls-2" x="439.5" y="69.12" width="9.56" height="9.57"/>
  <rect class="cls-2" x="458.02" y="69.12" width="9.56" height="9.57"/>
  <polygon class="cls-2" points="561.53 87.42 581.58 87.42 594.51 114.65 606.72 87.42 626.97 87.42 603.02 132.62 603.02 157.12 585.48 157.12 585.48 132.62 561.53 87.42"/>
  <path class="cls-2" d="M730.81,108.43h16.67c-.04-1.85-.09-3.7-.13-5.55-.47-11.47-6.39-14.79-13.72-16.03-11.62-1.54-21.46-1.19-29.55,1.06-5.48,1.44-8.95,4.92-9.94,10.92-1.09,6.13-1.51,12.42.59,19.28,2.13,6.29,6.69,8.26,11.87,9.11,7.27,1.63,14.71,1.66,22.1,2.12,2.16.19,3.08,1.65,3.15,3.99-.01,1.26-.03,2.52-.04,3.78-.32,2.67-1.56,3.51-2.91,4.1-3.52.89-8.08,1.02-13.72.36-4.84-.66-5.14-4.1-5.26-7.66h-16.67c-.07,5.55.68,10.84,3.32,15.56,1.25,2.62,3.85,4.87,9.55,6.27,14.57,2.55,27.3,1.4,33.95-1.21,4.13-1.71,6.58-4.83,8.01-8.81,2.27-7.56,1.59-15.26-.54-23.04-2.54-5.14-7.32-7.63-14.04-7.83-5.58-.45-11.16-.91-16.74-1.36-4.46-.25-5.48-2.2-5.87-4.45-.17-1.27-.16-2.52.1-3.76.69-3.06,2.99-3.78,5.99-4,2.45-.23,4.91-.27,7.4-.07,5.7.14,6.33,3.5,6.41,7.23Z"/>
  <rect class="cls-2" x="758.25" y="87.42" width="17.54" height="69.7"/>
  <polygon class="cls-2" points="188.01 87.42 239.76 87.42 239.76 103.59 222.66 103.59 222.66 157.12 205.11 157.12 205.11 103.59 188.01 103.59 188.01 87.42"/>
  <path class="cls-2" d="M616.71,157.12h12.5c1.29.08,2.15-.9,2.79-2.44,7.25-13.71,14.51-27.41,21.76-41.12,5.2,9.7,10.4,19.4,15.6,29.11h-26.03c-.82,0-1.52.34-2.07,1.11-1.74,3.36-3.33,6.77-4.64,10.31-.4,1.75.15,2.88,2.2,3.04h52.08c1.61,0,2.73-1.32,2.2-2.83-12.14-22.95-24.27-45.9-36.41-68.84-1.36-2.48-3.68-3.16-5.52,0-12.15,22.82-24.3,45.63-36.45,68.45-.8,1.59.07,3.06,1.99,3.23Z"/>
</svg>